<?xml version="1.0" encoding="utf-8" ?>
<svg baseProfile="full" height="91px" version="1.1" width="689px" xmlns="http://www.w3.org/2000/svg" xmlns:ev="http://www.w3.org/2001/xml-events" xmlns:xlink="http://www.w3.org/1999/xlink"><defs /><rect fill="#161b22" height="10" rx="2" ry="2" width="10" x="0" y="13" /><rect fill="#161b22" height="10" rx="2" ry="2" width="10" x="0" y="26" /><rect fill="#161b22" height="10" rx="2" ry="2" width="10" x="0" y="39" /><rect fill="#161b22" height="10" rx="2" ry="2" width="10" x="0" y="52" /><rect fill="#006d32" height="10" rx="2" ry="2" width="10" x="0" y="65" /><rect fill="#161b22" height="10" rx="2" ry="2" width="10" x="0" y="78" /><rect fill="#161b22" height="10" rx="2" ry="2" width="10" x="13" y="0" /><rect fill="#161b22" height="10" rx="2" ry="2" width="10" x="13" y="13" /><rect fill="#161b22" height="10" rx="2" ry="2" width="10" x="13" y="26" /><rect fill="#161b22" height="10" rx="2" ry="2" width="10" x="13" y="39" /><rect fill="#161b22" height="10" rx="2" ry="2" width="10" x="13" y="52" /><rect fill="#161b22" height="10" rx="2" ry="2" width="10" x="13" y="65" /><rect fill="#161b22" height="10" rx="2" ry="2" width="10" x="13" y="78" /><rect fill="#161b22" height="10" rx="2" ry="2" width="10" x="26" y="0" /><rect fill="#0e4429" height="10" rx="2" ry="2" width="10" x="26" y="13" /><rect fill="#161b22" height="10" rx="2" ry="2" width="10" x="26" y="26" /><rect fill="#39d353" height="10" rx="2" ry="2" width="10" x="26" y="39" /><rect fill="#26a641" height="10" rx="2" ry="2" width="10" x="26" y="52" /><rect fill="#26a641" height="10" rx="2" ry="2" width="10" x="26" y="65" /><rect fill="#161b22" height="10" rx="2" ry="2" width="10" x="26" y="78" /><rect fill="#161b22" height="10" rx="2" ry="2" width="10" x="39" y="0" /><rect fill="#161b22" height="10" rx="2" ry="2" width="10" x="39" y="13" /><rect fill="#0e4429" height="10" rx="2" ry="2" width="10" x="39" y="26" /><rect fill="#006d32" height="10" rx="2" ry="2" width="10" x="39" y="39" /><rect fill="#26a641" height="10" rx="2" ry="2" width="10" x="39" y="52" /><rect fill="#006d32" height="10" rx="2" ry="2" width="10" x="39" y="65" /><rect fill="#161b22" height="10" rx="2" ry="2" width="10" x="39" y="78" /><rect fill="#161b22" height="10" rx="2" ry="2" width="10" x="52" y="0" /><rect fill="#26a641" height="10" rx="2" ry="2" width="10" x="52" y="13" /><rect fill="#161b22" height="10" rx="2" ry="2" width="10" x="52" y="26" /><rect fill="#26a641" height="10" rx="2" ry="2" width="10" x="52" y="39" /><rect fill="#39d353" height="10" rx="2" ry="2" width="10" x="52" y="52" /><rect fill="#26a641" height="10" rx="2" ry="2" width="10" x="52" y="65" /><rect fill="#161b22" height="10" rx="2" ry="2" width="10" x="52" y="78" /><rect fill="#161b22" height="10" rx="2" ry="2" width="10" x="65" y="0" /><rect fill="#39d353" height="10" rx="2" ry="2" width="10" x="65" y="13" /><rect fill="#0e4429" height="10" rx="2" ry="2" width="10" x="65" y="26" /><rect fill="#006d32" height="10" rx="2" ry="2" width="10" x="65" y="39" /><rect fill="#006d32" height="10" rx="2" ry="2" width="10" x="65" y="52" /><rect fill="#26a641" height="10" rx="2" ry="2" width="10" x="65" y="65" /><rect fill="#161b22" height="10" rx="2" ry="2" width="10" x="65" y="78" /><rect fill="#161b22" height="10" rx="2" ry="2" width="10" x="78" y="0" /><rect fill="#0e4429" height="10" rx="2" ry="2" width="10" x="78" y="13" /><rect fill="#161b22" height="10" rx="2" ry="2" width="10" x="78" y="26" /><rect fill="#161b22" height="10" rx="2" ry="2" width="10" x="78" y="39" /><rect fill="#0e4429" height="10" rx="2" ry="2" width="10" x="78" y="52" /><rect fill="#161b22" height="10" rx="2" ry="2" width="10" x="78" y="65" /><rect fill="#161b22" height="10" rx="2" ry="2" width="10" x="78" y="78" /><rect fill="#161b22" height="10" rx="2" ry="2" width="10" x="91" y="0" /><rect fill="#26a641" height="10" rx="2" ry="2" width="10" x="91" y="13" /><rect fill="#161b22" height="10" rx="2" ry="2" width="10" x="91" y="26" /><rect fill="#161b22" height="10" rx="2" ry="2" width="10" x="91" y="39" /><rect fill="#161b22" height="10" rx="2" ry="2" width="10" x="91" y="52" /><rect fill="#161b22" height="10" rx="2" ry="2" width="10" x="91" y="65" /><rect fill="#161b22" height="10" rx="2" ry="2" width="10" x="91" y="78" /><rect fill="#161b22" height="10" rx="2" ry="2" width="10" x="104" y="0" /><rect fill="#161b22" height="10" rx="2" ry="2" width="10" x="104" y="13" /><rect fill="#161b22" height="10" rx="2" ry="2" width="10" x="104" y="26" /><rect fill="#006d32" height="10" rx="2" ry="2" width="10" x="104" y="39" /><rect fill="#0e4429" height="10" rx="2" ry="2" width="10" x="104" y="52" /><rect fill="#161b22" height="10" rx="2" ry="2" width="10" x="104" y="65" /><rect fill="#161b22" height="10" rx="2" ry="2" width="10" x="104" y="78" /><rect fill="#161b22" height="10" rx="2" ry="2" width="10" x="117" y="0" /><rect fill="#0e4429" height="10" rx="2" ry="2" width="10" x="117" y="13" /><rect fill="#161b22" height="10" rx="2" ry="2" width="10" x="117" y="26" /><rect fill="#161b22" height="10" rx="2" ry="2" width="10" x="117" y="39" /><rect fill="#161b22" height="10" rx="2" ry="2" width="10" x="117" y="52" /><rect fill="#161b22" height="10" rx="2" ry="2" width="10" x="117" y="65" /><rect fill="#161b22" height="10" rx="2" ry="2" width="10" x="117" y="78" /><rect fill="#161b22" height="10" rx="2" ry="2" width="10" x="130" y="0" /><rect fill="#161b22" height="10" rx="2" ry="2" width="10" x="130" y="13" /><rect fill="#161b22" height="10" rx="2" ry="2" width="10" x="130" y="26" /><rect fill="#0e4429" height="10" rx="2" ry="2" width="10" x="130" y="39" /><rect fill="#161b22" height="10" rx="2" ry="2" width="10" x="130" y="52" /><rect fill="#161b22" height="10" rx="2" ry="2" width="10" x="130" y="65" /><rect fill="#161b22" height="10" rx="2" ry="2" width="10" x="130" y="78" /><rect fill="#161b22" height="10" rx="2" ry="2" width="10" x="143" y="0" /><rect fill="#006d32" height="10" rx="2" ry="2" width="10" x="143" y="13" /><rect fill="#161b22" height="10" rx="2" ry="2" width="10" x="143" y="26" /><rect fill="#0e4429" height="10" rx="2" ry="2" width="10" x="143" y="39" /><rect fill="#26a641" height="10" rx="2" ry="2" width="10" x="143" y="52" /><rect fill="#161b22" height="10" rx="2" ry="2" width="10" x="143" y="65" /><rect fill="#161b22" height="10" rx="2" ry="2" width="10" x="143" y="78" /><rect fill="#161b22" height="10" rx="2" ry="2" width="10" x="156" y="0" /><rect fill="#006d32" height="10" rx="2" ry="2" width="10" x="156" y="13" /><rect fill="#161b22" height="10" rx="2" ry="2" width="10" x="156" y="26" /><rect fill="#006d32" height="10" rx="2" ry="2" width="10" x="156" y="39" /><rect fill="#161b22" height="10" rx="2" ry="2" width="10" x="156" y="52" /><rect fill="#161b22" height="10" rx="2" ry="2" width="10" x="156" y="65" /><rect fill="#161b22" height="10" rx="2" ry="2" width="10" x="156" y="78" /><rect fill="#161b22" height="10" rx="2" ry="2" width="10" x="169" y="0" /><rect fill="#161b22" height="10" rx="2" ry="2" width="10" x="169" y="13" /><rect fill="#0e4429" height="10" rx="2" ry="2" width="10" x="169" y="26" /><rect fill="#161b22" height="10" rx="2" ry="2" width="10" x="169" y="39" /><rect fill="#161b22" height="10" rx="2" ry="2" width="10" x="169" y="52" /><rect fill="#161b22" height="10" rx="2" ry="2" width="10" x="169" y="65" /><rect fill="#161b22" height="10" rx="2" ry="2" width="10" x="169" y="78" /><rect fill="#161b22" height="10" rx="2" ry="2" width="10" x="182" y="0" /><rect fill="#006d32" height="10" rx="2" ry="2" width="10" x="182" y="13" /><rect fill="#0e4429" height="10" rx="2" ry="2" width="10" x="182" y="26" /><rect fill="#0e4429" height="10" rx="2" ry="2" width="10" x="182" y="39" /><rect fill="#0e4429" height="10" rx="2" ry="2" width="10" x="182" y="52" /><rect fill="#0e4429" height="10" rx="2" ry="2" width="10" x="182" y="65" /><rect fill="#161b22" height="10" rx="2" ry="2" width="10" x="182" y="78" /><rect fill="#161b22" height="10" rx="2" ry="2" width="10" x="195" y="0" /><rect fill="#161b22" height="10" rx="2" ry="2" width="10" x="195" y="13" /><rect fill="#161b22" height="10" rx="2" ry="2" width="10" x="195" y="26" /><rect fill="#006d32" height="10" rx="2" ry="2" width="10" x="195" y="39" /><rect fill="#161b22" height="10" rx="2" ry="2" width="10" x="195" y="52" /><rect fill="#161b22" height="10" rx="2" ry="2" width="10" x="195" y="65" /><rect fill="#161b22" height="10" rx="2" ry="2" width="10" x="195" y="78" /><rect fill="#161b22" height="10" rx="2" ry="2" width="10" x="208" y="0" /><rect fill="#0e4429" height="10" rx="2" ry="2" width="10" x="208" y="13" /><rect fill="#26a641" height="10" rx="2" ry="2" width="10" x="208" y="26" /><rect fill="#0e4429" height="10" rx="2" ry="2" width="10" x="208" y="39" /><rect fill="#006d32" height="10" rx="2" ry="2" width="10" x="208" y="52" /><rect fill="#0e4429" height="10" rx="2" ry="2" width="10" x="208" y="65" /><rect fill="#161b22" height="10" rx="2" ry="2" width="10" x="208" y="78" /><rect fill="#161b22" height="10" rx="2" ry="2" width="10" x="221" y="0" /><rect fill="#0e4429" height="10" rx="2" ry="2" width="10" x="221" y="13" /><rect fill="#006d32" height="10" rx="2" ry="2" width="10" x="221" y="26" /><rect fill="#39d353" height="10" rx="2" ry="2" width="10" x="221" y="39" /><rect fill="#161b22" height="10" rx="2" ry="2" width="10" x="221" y="52" /><rect fill="#161b22" height="10" rx="2" ry="2" width="10" x="221" y="65" /><rect fill="#161b22" height="10" rx="2" ry="2" width="10" x="221" y="78" /><rect fill="#161b22" height="10" rx="2" ry="2" width="10" x="234" y="0" /><rect fill="#006d32" height="10" rx="2" ry="2" width="10" x="234" y="13" /><rect fill="#161b22" height="10" rx="2" ry="2" width="10" x="234" y="26" /><rect fill="#161b22" height="10" rx="2" ry="2" width="10" x="234" y="39" /><rect fill="#0e4429" height="10" rx="2" ry="2" width="10" x="234" y="52" /><rect fill="#161b22" height="10" rx="2" ry="2" width="10" x="234" y="65" /><rect fill="#161b22" height="10" rx="2" ry="2" width="10" x="234" y="78" /><rect fill="#161b22" height="10" rx="2" ry="2" width="10" x="247" y="0" /><rect fill="#0e4429" height="10" rx="2" ry="2" width="10" x="247" y="13" /><rect fill="#006d32" height="10" rx="2" ry="2" width="10" x="247" y="26" /><rect fill="#161b22" height="10" rx="2" ry="2" width="10" x="247" y="39" /><rect fill="#161b22" height="10" rx="2" ry="2" width="10" x="247" y="52" /><rect fill="#161b22" height="10" rx="2" ry="2" width="10" x="247" y="65" /><rect fill="#161b22" height="10" rx="2" ry="2" width="10" x="247" y="78" /><rect fill="#161b22" height="10" rx="2" ry="2" width="10" x="260" y="0" /><rect fill="#161b22" height="10" rx="2" ry="2" width="10" x="260" y="13" /><rect fill="#0e4429" height="10" rx="2" ry="2" width="10" x="260" y="26" /><rect fill="#161b22" height="10" rx="2" ry="2" width="10" x="260" y="39" /><rect fill="#161b22" height="10" rx="2" ry="2" width="10" x="260" y="52" /><rect fill="#161b22" height="10" rx="2" ry="2" width="10" x="260" y="65" /><rect fill="#161b22" height="10" rx="2" ry="2" width="10" x="260" y="78" /><rect fill="#161b22" height="10" rx="2" ry="2" width="10" x="273" y="0" /><rect fill="#161b22" height="10" rx="2" ry="2" width="10" x="273" y="13" /><rect fill="#006d32" height="10" rx="2" ry="2" width="10" x="273" y="26" /><rect fill="#0e4429" height="10" rx="2" ry="2" width="10" x="273" y="39" /><rect fill="#26a641" height="10" rx="2" ry="2" width="10" x="273" y="52" /><rect fill="#0e4429" height="10" rx="2" ry="2" width="10" x="273" y="65" /><rect fill="#161b22" height="10" rx="2" ry="2" width="10" x="273" y="78" /><rect fill="#161b22" height="10" rx="2" ry="2" width="10" x="286" y="0" /><rect fill="#006d32" height="10" rx="2" ry="2" width="10" x="286" y="13" /><rect fill="#161b22" height="10" rx="2" ry="2" width="10" x="286" y="26" /><rect fill="#161b22" height="10" rx="2" ry="2" width="10" x="286" y="39" /><rect fill="#0e4429" height="10" rx="2" ry="2" width="10" x="286" y="52" /><rect fill="#161b22" height="10" rx="2" ry="2" width="10" x="286" y="65" /><rect fill="#161b22" height="10" rx="2" ry="2" width="10" x="286" y="78" /><rect fill="#161b22" height="10" rx="2" ry="2" width="10" x="299" y="0" /><rect fill="#161b22" height="10" rx="2" ry="2" width="10" x="299" y="13" /><rect fill="#161b22" height="10" rx="2" ry="2" width="10" x="299" y="26" /><rect fill="#161b22" height="10" rx="2" ry="2" width="10" x="299" y="39" /><rect fill="#161b22" height="10" rx="2" ry="2" width="10" x="299" y="52" /><rect fill="#161b22" height="10" rx="2" ry="2" width="10" x="299" y="65" /><rect fill="#161b22" height="10" rx="2" ry="2" width="10" x="299" y="78" /><rect fill="#161b22" height="10" rx="2" ry="2" width="10" x="312" y="0" /><rect fill="#161b22" height="10" rx="2" ry="2" width="10" x="312" y="13" /><rect fill="#161b22" height="10" rx="2" ry="2" width="10" x="312" y="26" /><rect fill="#161b22" height="10" rx="2" ry="2" width="10" x="312" y="39" /><rect fill="#161b22" height="10" rx="2" ry="2" width="10" x="312" y="52" /><rect fill="#161b22" height="10" rx="2" ry="2" width="10" x="312" y="65" /><rect fill="#161b22" height="10" rx="2" ry="2" width="10" x="312" y="78" /><rect fill="#161b22" height="10" rx="2" ry="2" width="10" x="325" y="0" /><rect fill="#161b22" height="10" rx="2" ry="2" width="10" x="325" y="13" /><rect fill="#26a641" height="10" rx="2" ry="2" width="10" x="325" y="26" /><rect fill="#006d32" height="10" rx="2" ry="2" width="10" x="325" y="39" /><rect fill="#161b22" height="10" rx="2" ry="2" width="10" x="325" y="52" /><rect fill="#161b22" height="10" rx="2" ry="2" width="10" x="325" y="65" /><rect fill="#161b22" height="10" rx="2" ry="2" width="10" x="325" y="78" /><rect fill="#161b22" height="10" rx="2" ry="2" width="10" x="338" y="0" /><rect fill="#161b22" height="10" rx="2" ry="2" width="10" x="338" y="13" /><rect fill="#161b22" height="10" rx="2" ry="2" width="10" x="338" y="26" /><rect fill="#161b22" height="10" rx="2" ry="2" width="10" x="338" y="39" /><rect fill="#161b22" height="10" rx="2" ry="2" width="10" x="338" y="52" /><rect fill="#161b22" height="10" rx="2" ry="2" width="10" x="338" y="65" /><rect fill="#161b22" height="10" rx="2" ry="2" width="10" x="338" y="78" /><rect fill="#161b22" height="10" rx="2" ry="2" width="10" x="351" y="0" /><rect fill="#161b22" height="10" rx="2" ry="2" width="10" x="351" y="13" /><rect fill="#0e4429" height="10" rx="2" ry="2" width="10" x="351" y="26" /><rect fill="#161b22" height="10" rx="2" ry="2" width="10" x="351" y="39" /><rect fill="#006d32" height="10" rx="2" ry="2" width="10" x="351" y="52" /><rect fill="#161b22" height="10" rx="2" ry="2" width="10" x="351" y="65" /><rect fill="#161b22" height="10" rx="2" ry="2" width="10" x="351" y="78" /><rect fill="#161b22" height="10" rx="2" ry="2" width="10" x="364" y="0" /><rect fill="#006d32" height="10" rx="2" ry="2" width="10" x="364" y="13" /><rect fill="#26a641" height="10" rx="2" ry="2" width="10" x="364" y="26" /><rect fill="#161b22" height="10" rx="2" ry="2" width="10" x="364" y="39" /><rect fill="#161b22" height="10" rx="2" ry="2" width="10" x="364" y="52" /><rect fill="#0e4429" height="10" rx="2" ry="2" width="10" x="364" y="65" /><rect fill="#161b22" height="10" rx="2" ry="2" width="10" x="364" y="78" /><rect fill="#161b22" height="10" rx="2" ry="2" width="10" x="377" y="0" /><rect fill="#0e4429" height="10" rx="2" ry="2" width="10" x="377" y="13" /><rect fill="#006d32" height="10" rx="2" ry="2" width="10" x="377" y="26" /><rect fill="#006d32" height="10" rx="2" ry="2" width="10" x="377" y="39" /><rect fill="#26a641" height="10" rx="2" ry="2" width="10" x="377" y="52" /><rect fill="#0e4429" height="10" rx="2" ry="2" width="10" x="377" y="65" /><rect fill="#161b22" height="10" rx="2" ry="2" width="10" x="377" y="78" /><rect fill="#161b22" height="10" rx="2" ry="2" width="10" x="390" y="0" /><rect fill="#0e4429" height="10" rx="2" ry="2" width="10" x="390" y="13" /><rect fill="#006d32" height="10" rx="2" ry="2" width="10" x="390" y="26" /><rect fill="#006d32" height="10" rx="2" ry="2" width="10" x="390" y="39" /><rect fill="#0e4429" height="10" rx="2" ry="2" width="10" x="390" y="52" /><rect fill="#006d32" height="10" rx="2" ry="2" width="10" x="390" y="65" /><rect fill="#161b22" height="10" rx="2" ry="2" width="10" x="390" y="78" /><rect fill="#161b22" height="10" rx="2" ry="2" width="10" x="403" y="0" /><rect fill="#0e4429" height="10" rx="2" ry="2" width="10" x="403" y="13" /><rect fill="#0e4429" height="10" rx="2" ry="2" width="10" x="403" y="26" /><rect fill="#161b22" height="10" rx="2" ry="2" width="10" x="403" y="39" /><rect fill="#0e4429" height="10" rx="2" ry="2" width="10" x="403" y="52" /><rect fill="#39d353" height="10" rx="2" ry="2" width="10" x="403" y="65" /><rect fill="#161b22" height="10" rx="2" ry="2" width="10" x="403" y="78" /><rect fill="#161b22" height="10" rx="2" ry="2" width="10" x="416" y="0" /><rect fill="#161b22" height="10" rx="2" ry="2" width="10" x="416" y="13" /><rect fill="#161b22" height="10" rx="2" ry="2" width="10" x="416" y="26" /><rect fill="#006d32" height="10" rx="2" ry="2" width="10" x="416" y="39" /><rect fill="#39d353" height="10" rx="2" ry="2" width="10" x="416" y="52" /><rect fill="#0e4429" height="10" rx="2" ry="2" width="10" x="416" y="65" /><rect fill="#161b22" height="10" rx="2" ry="2" width="10" x="416" y="78" /><rect fill="#161b22" height="10" rx="2" ry="2" width="10" x="429" y="0" /><rect fill="#161b22" height="10" rx="2" ry="2" width="10" x="429" y="13" /><rect fill="#0e4429" height="10" rx="2" ry="2" width="10" x="429" y="26" /><rect fill="#006d32" height="10" rx="2" ry="2" width="10" x="429" y="39" /><rect fill="#26a641" height="10" rx="2" ry="2" width="10" x="429" y="52" /><rect fill="#26a641" height="10" rx="2" ry="2" width="10" x="429" y="65" /><rect fill="#161b22" height="10" rx="2" ry="2" width="10" x="429" y="78" /><rect fill="#161b22" height="10" rx="2" ry="2" width="10" x="442" y="0" /><rect fill="#26a641" height="10" rx="2" ry="2" width="10" x="442" y="13" /><rect fill="#161b22" height="10" rx="2" ry="2" width="10" x="442" y="26" /><rect fill="#161b22" height="10" rx="2" ry="2" width="10" x="442" y="39" /><rect fill="#161b22" height="10" rx="2" ry="2" width="10" x="442" y="52" /><rect fill="#161b22" height="10" rx="2" ry="2" width="10" x="442" y="65" /><rect fill="#161b22" height="10" rx="2" ry="2" width="10" x="442" y="78" /><rect fill="#161b22" height="10" rx="2" ry="2" width="10" x="455" y="0" /><rect fill="#0e4429" height="10" rx="2" ry="2" width="10" x="455" y="13" /><rect fill="#0e4429" height="10" rx="2" ry="2" width="10" x="455" y="26" /><rect fill="#0e4429" height="10" rx="2" ry="2" width="10" x="455" y="39" /><rect fill="#161b22" height="10" rx="2" ry="2" width="10" x="455" y="52" /><rect fill="#161b22" height="10" rx="2" ry="2" width="10" x="455" y="65" /><rect fill="#161b22" height="10" rx="2" ry="2" width="10" x="455" y="78" /><rect fill="#161b22" height="10" rx="2" ry="2" width="10" x="468" y="0" /><rect fill="#161b22" height="10" rx="2" ry="2" width="10" x="468" y="13" /><rect fill="#161b22" height="10" rx="2" ry="2" width="10" x="468" y="26" /><rect fill="#39d353" height="10" rx="2" ry="2" width="10" x="468" y="39" /><rect fill="#161b22" height="10" rx="2" ry="2" width="10" x="468" y="52" /><rect fill="#161b22" height="10" rx="2" ry="2" width="10" x="468" y="65" /><rect fill="#161b22" height="10" rx="2" ry="2" width="10" x="468" y="78" /><rect fill="#161b22" height="10" rx="2" ry="2" width="10" x="481" y="0" /><rect fill="#0e4429" height="10" rx="2" ry="2" width="10" x="481" y="13" /><rect fill="#161b22" height="10" rx="2" ry="2" width="10" x="481" y="26" /><rect fill="#006d32" height="10" rx="2" ry="2" width="10" x="481" y="39" /><rect fill="#161b22" height="10" rx="2" ry="2" width="10" x="481" y="52" /><rect fill="#161b22" height="10" rx="2" ry="2" width="10" x="481" y="65" /><rect fill="#161b22" height="10" rx="2" ry="2" width="10" x="481" y="78" /><rect fill="#161b22" height="10" rx="2" ry="2" width="10" x="494" y="0" /><rect fill="#006d32" height="10" rx="2" ry="2" width="10" x="494" y="13" /><rect fill="#26a641" height="10" rx="2" ry="2" width="10" x="494" y="26" /><rect fill="#39d353" height="10" rx="2" ry="2" width="10" x="494" y="39" /><rect fill="#006d32" height="10" rx="2" ry="2" width="10" x="494" y="52" /><rect fill="#161b22" height="10" rx="2" ry="2" width="10" x="494" y="65" /><rect fill="#161b22" height="10" rx="2" ry="2" width="10" x="494" y="78" /><rect fill="#161b22" height="10" rx="2" ry="2" width="10" x="507" y="0" /><rect fill="#39d353" height="10" rx="2" ry="2" width="10" x="507" y="13" /><rect fill="#0e4429" height="10" rx="2" ry="2" width="10" x="507" y="26" /><rect fill="#006d32" height="10" rx="2" ry="2" width="10" x="507" y="39" /><rect fill="#161b22" height="10" rx="2" ry="2" width="10" x="507" y="52" /><rect fill="#161b22" height="10" rx="2" ry="2" width="10" x="507" y="65" /><rect fill="#161b22" height="10" rx="2" ry="2" width="10" x="507" y="78" /><rect fill="#161b22" height="10" rx="2" ry="2" width="10" x="520" y="0" /><rect fill="#161b22" height="10" rx="2" ry="2" width="10" x="520" y="13" /><rect fill="#161b22" height="10" rx="2" ry="2" width="10" x="520" y="26" /><rect fill="#0e4429" height="10" rx="2" ry="2" width="10" x="520" y="39" /><rect fill="#161b22" height="10" rx="2" ry="2" width="10" x="520" y="52" /><rect fill="#161b22" height="10" rx="2" ry="2" width="10" x="520" y="65" /><rect fill="#161b22" height="10" rx="2" ry="2" width="10" x="520" y="78" /><rect fill="#161b22" height="10" rx="2" ry="2" width="10" x="533" y="0" /><rect fill="#161b22" height="10" rx="2" ry="2" width="10" x="533" y="13" /><rect fill="#161b22" height="10" rx="2" ry="2" width="10" x="533" y="26" /><rect fill="#161b22" height="10" rx="2" ry="2" width="10" x="533" y="39" /><rect fill="#161b22" height="10" rx="2" ry="2" width="10" x="533" y="52" /><rect fill="#161b22" height="10" rx="2" ry="2" width="10" x="533" y="65" /><rect fill="#161b22" height="10" rx="2" ry="2" width="10" x="533" y="78" /><rect fill="#161b22" height="10" rx="2" ry="2" width="10" x="546" y="0" /><rect fill="#161b22" height="10" rx="2" ry="2" width="10" x="546" y="13" /><rect fill="#161b22" height="10" rx="2" ry="2" width="10" x="546" y="26" /><rect fill="#161b22" height="10" rx="2" ry="2" width="10" x="546" y="39" /><rect fill="#0e4429" height="10" rx="2" ry="2" width="10" x="546" y="52" /><rect fill="#006d32" height="10" rx="2" ry="2" width="10" x="546" y="65" /><rect fill="#161b22" height="10" rx="2" ry="2" width="10" x="546" y="78" /><rect fill="#161b22" height="10" rx="2" ry="2" width="10" x="559" y="0" /><rect fill="#26a641" height="10" rx="2" ry="2" width="10" x="559" y="13" /><rect fill="#161b22" height="10" rx="2" ry="2" width="10" x="559" y="26" /><rect fill="#161b22" height="10" rx="2" ry="2" width="10" x="559" y="39" /><rect fill="#26a641" height="10" rx="2" ry="2" width="10" x="559" y="52" /><rect fill="#0e4429" height="10" rx="2" ry="2" width="10" x="559" y="65" /><rect fill="#161b22" height="10" rx="2" ry="2" width="10" x="559" y="78" /><rect fill="#161b22" height="10" rx="2" ry="2" width="10" x="572" y="0" /><rect fill="#161b22" height="10" rx="2" ry="2" width="10" x="572" y="13" /><rect fill="#0e4429" height="10" rx="2" ry="2" width="10" x="572" y="26" /><rect fill="#161b22" height="10" rx="2" ry="2" width="10" x="572" y="39" /><rect fill="#161b22" height="10" rx="2" ry="2" width="10" x="572" y="52" /><rect fill="#161b22" height="10" rx="2" ry="2" width="10" x="572" y="65" /><rect fill="#161b22" height="10" rx="2" ry="2" width="10" x="572" y="78" /><rect fill="#161b22" height="10" rx="2" ry="2" width="10" x="585" y="0" /><rect fill="#161b22" height="10" rx="2" ry="2" width="10" x="585" y="13" /><rect fill="#161b22" height="10" rx="2" ry="2" width="10" x="585" y="26" /><rect fill="#006d32" height="10" rx="2" ry="2" width="10" x="585" y="39" /><rect fill="#161b22" height="10" rx="2" ry="2" width="10" x="585" y="52" /><rect fill="#0e4429" height="10" rx="2" ry="2" width="10" x="585" y="65" /><rect fill="#161b22" height="10" rx="2" ry="2" width="10" x="585" y="78" /><rect fill="#161b22" height="10" rx="2" ry="2" width="10" x="598" y="0" /><rect fill="#161b22" height="10" rx="2" ry="2" width="10" x="598" y="13" /><rect fill="#161b22" height="10" rx="2" ry="2" width="10" x="598" y="26" /><rect fill="#161b22" height="10" rx="2" ry="2" width="10" x="598" y="39" /><rect fill="#161b22" height="10" rx="2" ry="2" width="10" x="598" y="52" /><rect fill="#161b22" height="10" rx="2" ry="2" width="10" x="598" y="65" /><rect fill="#161b22" height="10" rx="2" ry="2" width="10" x="598" y="78" /><rect fill="#161b22" height="10" rx="2" ry="2" width="10" x="611" y="0" /><rect fill="#161b22" height="10" rx="2" ry="2" width="10" x="611" y="13" /><rect fill="#161b22" height="10" rx="2" ry="2" width="10" x="611" y="26" /><rect fill="#161b22" height="10" rx="2" ry="2" width="10" x="611" y="39" /><rect fill="#161b22" height="10" rx="2" ry="2" width="10" x="611" y="52" /><rect fill="#161b22" height="10" rx="2" ry="2" width="10" x="611" y="65" /><rect fill="#161b22" height="10" rx="2" ry="2" width="10" x="611" y="78" /><rect fill="#161b22" height="10" rx="2" ry="2" width="10" x="624" y="0" /><rect fill="#161b22" height="10" rx="2" ry="2" width="10" x="624" y="13" /><rect fill="#161b22" height="10" rx="2" ry="2" width="10" x="624" y="26" /><rect fill="#0e4429" height="10" rx="2" ry="2" width="10" x="624" y="39" /><rect fill="#161b22" height="10" rx="2" ry="2" width="10" x="624" y="52" /><rect fill="#0e4429" height="10" rx="2" ry="2" width="10" x="624" y="65" /><rect fill="#161b22" height="10" rx="2" ry="2" width="10" x="624" y="78" /><rect fill="#161b22" height="10" rx="2" ry="2" width="10" x="637" y="0" /><rect fill="#161b22" height="10" rx="2" ry="2" width="10" x="637" y="13" /><rect fill="#006d32" height="10" rx="2" ry="2" width="10" x="637" y="26" /><rect fill="#161b22" height="10" rx="2" ry="2" width="10" x="637" y="39" /><rect fill="#161b22" height="10" rx="2" ry="2" width="10" x="637" y="52" /><rect fill="#161b22" height="10" rx="2" ry="2" width="10" x="637" y="65" /><rect fill="#161b22" height="10" rx="2" ry="2" width="10" x="637" y="78" /><rect fill="#161b22" height="10" rx="2" ry="2" width="10" x="650" y="0" /><rect fill="#006d32" height="10" rx="2" ry="2" width="10" x="650" y="13" /><rect fill="#006d32" height="10" rx="2" ry="2" width="10" x="650" y="26" /><rect fill="#006d32" height="10" rx="2" ry="2" width="10" x="650" y="39" /><rect fill="#26a641" height="10" rx="2" ry="2" width="10" x="650" y="52" /><rect fill="#26a641" height="10" rx="2" ry="2" width="10" x="650" y="65" /><rect fill="#161b22" height="10" rx="2" ry="2" width="10" x="650" y="78" /><rect fill="#161b22" height="10" rx="2" ry="2" width="10" x="663" y="0" /><rect fill="#006d32" height="10" rx="2" ry="2" width="10" x="663" y="13" /><rect fill="#161b22" height="10" rx="2" ry="2" width="10" x="663" y="26" /><rect fill="#0e4429" height="10" rx="2" ry="2" width="10" x="663" y="39" /><rect fill="#26a641" height="10" rx="2" ry="2" width="10" x="663" y="52" /><rect fill="#26a641" height="10" rx="2" ry="2" width="10" x="663" y="65" /><rect fill="#161b22" height="10" rx="2" ry="2" width="10" x="663" y="78" /><rect fill="#161b22" height="10" rx="2" ry="2" width="10" x="676" y="0" /><rect fill="#39d353" height="10" rx="2" ry="2" width="10" x="676" y="13" /><rect fill="#0e4429" height="10" rx="2" ry="2" width="10" x="676" y="26" /></svg>