<?xml version="1.0" encoding="utf-8" ?>
<svg baseProfile="full" height="121px" version="1.1" width="689px" xmlns="http://www.w3.org/2000/svg" xmlns:ev="http://www.w3.org/2001/xml-events" xmlns:xlink="http://www.w3.org/1999/xlink"><defs /><text fill="#c9d1d9" style="font-family: -apple-system, BlinkMacSystemFont, 'Segoe UI', Helvetica, Arial, sans-serif, 'Apple Color Emoji', 'Segoe UI Emoji'; font-size: 14px;" x="0" y="18">613 contributions in the last year</text><rect fill="#161b22" height="10" rx="2" ry="2" width="10" x="0" y="56" /><rect fill="#161b22" height="10" rx="2" ry="2" width="10" x="0" y="69" /><rect fill="#161b22" height="10" rx="2" ry="2" width="10" x="0" y="82" /><rect fill="#161b22" height="10" rx="2" ry="2" width="10" x="0" y="95" /><rect fill="#161b22" height="10" rx="2" ry="2" width="10" x="0" y="108" /><rect fill="#161b22" height="10" rx="2" ry="2" width="10" x="13" y="30" /><rect fill="#0e4429" height="10" rx="2" ry="2" width="10" x="13" y="43" /><rect fill="#161b22" height="10" rx="2" ry="2" width="10" x="13" y="56" /><rect fill="#39d353" height="10" rx="2" ry="2" width="10" x="13" y="69" /><rect fill="#26a641" height="10" rx="2" ry="2" width="10" x="13" y="82" /><rect fill="#26a641" height="10" rx="2" ry="2" width="10" x="13" y="95" /><rect fill="#161b22" height="10" rx="2" ry="2" width="10" x="13" y="108" /><rect fill="#161b22" height="10" rx="2" ry="2" width="10" x="26" y="30" /><rect fill="#161b22" height="10" rx="2" ry="2" width="10" x="26" y="43" /><rect fill="#0e4429" height="10" rx="2" ry="2" width="10" x="26" y="56" /><rect fill="#006d32" height="10" rx="2" ry="2" width="10" x="26" y="69" /><rect fill="#26a641" height="10" rx="2" ry="2" width="10" x="26" y="82" /><rect fill="#006d32" height="10" rx="2" ry="2" width="10" x="26" y="95" /><rect fill="#161b22" height="10" rx="2" ry="2" width="10" x="26" y="108" /><rect fill="#161b22" height="10" rx="2" ry="2" width="10" x="39" y="30" /><rect fill="#26a641" height="10" rx="2" ry="2" width="10" x="39" y="43" /><rect fill="#161b22" height="10" rx="2" ry="2" width="10" x="39" y="56" /><rect fill="#26a641" height="10" rx="2" ry="2" width="10" x="39" y="69" /><rect fill="#39d353" height="10" rx="2" ry="2" width="10" x="39" y="82" /><rect fill="#26a641" height="10" rx="2" ry="2" width="10" x="39" y="95" /><rect fill="#161b22" height="10" rx="2" ry="2" width="10" x="39" y="108" /><rect fill="#161b22" height="10" rx="2" ry="2" width="10" x="52" y="30" /><rect fill="#39d353" height="10" rx="2" ry="2" width="10" x="52" y="43" /><rect fill="#0e4429" height="10" rx="2" ry="2" width="10" x="52" y="56" /><rect fill="#006d32" height="10" rx="2" ry="2" width="10" x="52" y="69" /><rect fill="#006d32" height="10" rx="2" ry="2" width="10" x="52" y="82" /><rect fill="#26a641" height="10" rx="2" ry="2" width="10" x="52" y="95" /><rect fill="#161b22" height="10" rx="2" ry="2" width="10" x="52" y="108" /><rect fill="#161b22" height="10" rx="2" ry="2" width="10" x="65" y="30" /><rect fill="#0e4429" height="10" rx="2" ry="2" width="10" x="65" y="43" /><rect fill="#161b22" height="10" rx="2" ry="2" width="10" x="65" y="56" /><rect fill="#161b22" height="10" rx="2" ry="2" width="10" x="65" y="69" /><rect fill="#0e4429" height="10" rx="2" ry="2" width="10" x="65" y="82" /><rect fill="#161b22" height="10" rx="2" ry="2" width="10" x="65" y="95" /><rect fill="#161b22" height="10" rx="2" ry="2" width="10" x="65" y="108" /><rect fill="#161b22" height="10" rx="2" ry="2" width="10" x="78" y="30" /><rect fill="#26a641" height="10" rx="2" ry="2" width="10" x="78" y="43" /><rect fill="#161b22" height="10" rx="2" ry="2" width="10" x="78" y="56" /><rect fill="#161b22" height="10" rx="2" ry="2" width="10" x="78" y="69" /><rect fill="#161b22" height="10" rx="2" ry="2" width="10" x="78" y="82" /><rect fill="#161b22" height="10" rx="2" ry="2" width="10" x="78" y="95" /><rect fill="#161b22" height="10" rx="2" ry="2" width="10" x="78" y="108" /><rect fill="#161b22" height="10" rx="2" ry="2" width="10" x="91" y="30" /><rect fill="#161b22" height="10" rx="2" ry="2" width="10" x="91" y="43" /><rect fill="#161b22" height="10" rx="2" ry="2" width="10" x="91" y="56" /><rect fill="#006d32" height="10" rx="2" ry="2" width="10" x="91" y="69" /><rect fill="#0e4429" height="10" rx="2" ry="2" width="10" x="91" y="82" /><rect fill="#161b22" height="10" rx="2" ry="2" width="10" x="91" y="95" /><rect fill="#161b22" height="10" rx="2" ry="2" width="10" x="91" y="108" /><rect fill="#161b22" height="10" rx="2" ry="2" width="10" x="104" y="30" /><rect fill="#0e4429" height="10" rx="2" ry="2" width="10" x="104" y="43" /><rect fill="#161b22" height="10" rx="2" ry="2" width="10" x="104" y="56" /><rect fill="#161b22" height="10" rx="2" ry="2" width="10" x="104" y="69" /><rect fill="#161b22" height="10" rx="2" ry="2" width="10" x="104" y="82" /><rect fill="#161b22" height="10" rx="2" ry="2" width="10" x="104" y="95" /><rect fill="#161b22" height="10" rx="2" ry="2" width="10" x="104" y="108" /><rect fill="#161b22" height="10" rx="2" ry="2" width="10" x="117" y="30" /><rect fill="#161b22" height="10" rx="2" ry="2" width="10" x="117" y="43" /><rect fill="#161b22" height="10" rx="2" ry="2" width="10" x="117" y="56" /><rect fill="#0e4429" height="10" rx="2" ry="2" width="10" x="117" y="69" /><rect fill="#161b22" height="10" rx="2" ry="2" width="10" x="117" y="82" /><rect fill="#161b22" height="10" rx="2" ry="2" width="10" x="117" y="95" /><rect fill="#161b22" height="10" rx="2" ry="2" width="10" x="117" y="108" /><rect fill="#161b22" height="10" rx="2" ry="2" width="10" x="130" y="30" /><rect fill="#006d32" height="10" rx="2" ry="2" width="10" x="130" y="43" /><rect fill="#161b22" height="10" rx="2" ry="2" width="10" x="130" y="56" /><rect fill="#0e4429" height="10" rx="2" ry="2" width="10" x="130" y="69" /><rect fill="#26a641" height="10" rx="2" ry="2" width="10" x="130" y="82" /><rect fill="#161b22" height="10" rx="2" ry="2" width="10" x="130" y="95" /><rect fill="#161b22" height="10" rx="2" ry="2" width="10" x="130" y="108" /><rect fill="#161b22" height="10" rx="2" ry="2" width="10" x="143" y="30" /><rect fill="#006d32" height="10" rx="2" ry="2" width="10" x="143" y="43" /><rect fill="#161b22" height="10" rx="2" ry="2" width="10" x="143" y="56" /><rect fill="#006d32" height="10" rx="2" ry="2" width="10" x="143" y="69" /><rect fill="#161b22" height="10" rx="2" ry="2" width="10" x="143" y="82" /><rect fill="#161b22" height="10" rx="2" ry="2" width="10" x="143" y="95" /><rect fill="#161b22" height="10" rx="2" ry="2" width="10" x="143" y="108" /><rect fill="#161b22" height="10" rx="2" ry="2" width="10" x="156" y="30" /><rect fill="#161b22" height="10" rx="2" ry="2" width="10" x="156" y="43" /><rect fill="#0e4429" height="10" rx="2" ry="2" width="10" x="156" y="56" /><rect fill="#161b22" height="10" rx="2" ry="2" width="10" x="156" y="69" /><rect fill="#161b22" height="10" rx="2" ry="2" width="10" x="156" y="82" /><rect fill="#161b22" height="10" rx="2" ry="2" width="10" x="156" y="95" /><rect fill="#161b22" height="10" rx="2" ry="2" width="10" x="156" y="108" /><rect fill="#161b22" height="10" rx="2" ry="2" width="10" x="169" y="30" /><rect fill="#006d32" height="10" rx="2" ry="2" width="10" x="169" y="43" /><rect fill="#0e4429" height="10" rx="2" ry="2" width="10" x="169" y="56" /><rect fill="#0e4429" height="10" rx="2" ry="2" width="10" x="169" y="69" /><rect fill="#0e4429" height="10" rx="2" ry="2" width="10" x="169" y="82" /><rect fill="#0e4429" height="10" rx="2" ry="2" width="10" x="169" y="95" /><rect fill="#161b22" height="10" rx="2" ry="2" width="10" x="169" y="108" /><rect fill="#161b22" height="10" rx="2" ry="2" width="10" x="182" y="30" /><rect fill="#161b22" height="10" rx="2" ry="2" width="10" x="182" y="43" /><rect fill="#161b22" height="10" rx="2" ry="2" width="10" x="182" y="56" /><rect fill="#006d32" height="10" rx="2" ry="2" width="10" x="182" y="69" /><rect fill="#161b22" height="10" rx="2" ry="2" width="10" x="182" y="82" /><rect fill="#161b22" height="10" rx="2" ry="2" width="10" x="182" y="95" /><rect fill="#161b22" height="10" rx="2" ry="2" width="10" x="182" y="108" /><rect fill="#161b22" height="10" rx="2" ry="2" width="10" x="195" y="30" /><rect fill="#0e4429" height="10" rx="2" ry="2" width="10" x="195" y="43" /><rect fill="#26a641" height="10" rx="2" ry="2" width="10" x="195" y="56" /><rect fill="#0e4429" height="10" rx="2" ry="2" width="10" x="195" y="69" /><rect fill="#006d32" height="10" rx="2" ry="2" width="10" x="195" y="82" /><rect fill="#0e4429" height="10" rx="2" ry="2" width="10" x="195" y="95" /><rect fill="#161b22" height="10" rx="2" ry="2" width="10" x="195" y="108" /><rect fill="#161b22" height="10" rx="2" ry="2" width="10" x="208" y="30" /><rect fill="#0e4429" height="10" rx="2" ry="2" width="10" x="208" y="43" /><rect fill="#006d32" height="10" rx="2" ry="2" width="10" x="208" y="56" /><rect fill="#39d353" height="10" rx="2" ry="2" width="10" x="208" y="69" /><rect fill="#161b22" height="10" rx="2" ry="2" width="10" x="208" y="82" /><rect fill="#161b22" height="10" rx="2" ry="2" width="10" x="208" y="95" /><rect fill="#161b22" height="10" rx="2" ry="2" width="10" x="208" y="108" /><rect fill="#161b22" height="10" rx="2" ry="2" width="10" x="221" y="30" /><rect fill="#006d32" height="10" rx="2" ry="2" width="10" x="221" y="43" /><rect fill="#161b22" height="10" rx="2" ry="2" width="10" x="221" y="56" /><rect fill="#161b22" height="10" rx="2" ry="2" width="10" x="221" y="69" /><rect fill="#0e4429" height="10" rx="2" ry="2" width="10" x="221" y="82" /><rect fill="#161b22" height="10" rx="2" ry="2" width="10" x="221" y="95" /><rect fill="#161b22" height="10" rx="2" ry="2" width="10" x="221" y="108" /><rect fill="#161b22" height="10" rx="2" ry="2" width="10" x="234" y="30" /><rect fill="#0e4429" height="10" rx="2" ry="2" width="10" x="234" y="43" /><rect fill="#006d32" height="10" rx="2" ry="2" width="10" x="234" y="56" /><rect fill="#161b22" height="10" rx="2" ry="2" width="10" x="234" y="69" /><rect fill="#161b22" height="10" rx="2" ry="2" width="10" x="234" y="82" /><rect fill="#161b22" height="10" rx="2" ry="2" width="10" x="234" y="95" /><rect fill="#161b22" height="10" rx="2" ry="2" width="10" x="234" y="108" /><rect fill="#161b22" height="10" rx="2" ry="2" width="10" x="247" y="30" /><rect fill="#161b22" height="10" rx="2" ry="2" width="10" x="247" y="43" /><rect fill="#0e4429" height="10" rx="2" ry="2" width="10" x="247" y="56" /><rect fill="#161b22" height="10" rx="2" ry="2" width="10" x="247" y="69" /><rect fill="#161b22" height="10" rx="2" ry="2" width="10" x="247" y="82" /><rect fill="#161b22" height="10" rx="2" ry="2" width="10" x="247" y="95" /><rect fill="#161b22" height="10" rx="2" ry="2" width="10" x="247" y="108" /><rect fill="#161b22" height="10" rx="2" ry="2" width="10" x="260" y="30" /><rect fill="#161b22" height="10" rx="2" ry="2" width="10" x="260" y="43" /><rect fill="#006d32" height="10" rx="2" ry="2" width="10" x="260" y="56" /><rect fill="#0e4429" height="10" rx="2" ry="2" width="10" x="260" y="69" /><rect fill="#26a641" height="10" rx="2" ry="2" width="10" x="260" y="82" /><rect fill="#0e4429" height="10" rx="2" ry="2" width="10" x="260" y="95" /><rect fill="#161b22" height="10" rx="2" ry="2" width="10" x="260" y="108" /><rect fill="#161b22" height="10" rx="2" ry="2" width="10" x="273" y="30" /><rect fill="#006d32" height="10" rx="2" ry="2" width="10" x="273" y="43" /><rect fill="#161b22" height="10" rx="2" ry="2" width="10" x="273" y="56" /><rect fill="#161b22" height="10" rx="2" ry="2" width="10" x="273" y="69" /><rect fill="#0e4429" height="10" rx="2" ry="2" width="10" x="273" y="82" /><rect fill="#161b22" height="10" rx="2" ry="2" width="10" x="273" y="95" /><rect fill="#161b22" height="10" rx="2" ry="2" width="10" x="273" y="108" /><rect fill="#161b22" height="10" rx="2" ry="2" width="10" x="286" y="30" /><rect fill="#161b22" height="10" rx="2" ry="2" width="10" x="286" y="43" /><rect fill="#161b22" height="10" rx="2" ry="2" width="10" x="286" y="56" /><rect fill="#161b22" height="10" rx="2" ry="2" width="10" x="286" y="69" /><rect fill="#161b22" height="10" rx="2" ry="2" width="10" x="286" y="82" /><rect fill="#161b22" height="10" rx="2" ry="2" width="10" x="286" y="95" /><rect fill="#161b22" height="10" rx="2" ry="2" width="10" x="286" y="108" /><rect fill="#161b22" height="10" rx="2" ry="2" width="10" x="299" y="30" /><rect fill="#161b22" height="10" rx="2" ry="2" width="10" x="299" y="43" /><rect fill="#161b22" height="10" rx="2" ry="2" width="10" x="299" y="56" /><rect fill="#161b22" height="10" rx="2" ry="2" width="10" x="299" y="69" /><rect fill="#161b22" height="10" rx="2" ry="2" width="10" x="299" y="82" /><rect fill="#161b22" height="10" rx="2" ry="2" width="10" x="299" y="95" /><rect fill="#161b22" height="10" rx="2" ry="2" width="10" x="299" y="108" /><rect fill="#161b22" height="10" rx="2" ry="2" width="10" x="312" y="30" /><rect fill="#161b22" height="10" rx="2" ry="2" width="10" x="312" y="43" /><rect fill="#26a641" height="10" rx="2" ry="2" width="10" x="312" y="56" /><rect fill="#006d32" height="10" rx="2" ry="2" width="10" x="312" y="69" /><rect fill="#161b22" height="10" rx="2" ry="2" width="10" x="312" y="82" /><rect fill="#161b22" height="10" rx="2" ry="2" width="10" x="312" y="95" /><rect fill="#161b22" height="10" rx="2" ry="2" width="10" x="312" y="108" /><rect fill="#161b22" height="10" rx="2" ry="2" width="10" x="325" y="30" /><rect fill="#161b22" height="10" rx="2" ry="2" width="10" x="325" y="43" /><rect fill="#161b22" height="10" rx="2" ry="2" width="10" x="325" y="56" /><rect fill="#161b22" height="10" rx="2" ry="2" width="10" x="325" y="69" /><rect fill="#161b22" height="10" rx="2" ry="2" width="10" x="325" y="82" /><rect fill="#161b22" height="10" rx="2" ry="2" width="10" x="325" y="95" /><rect fill="#161b22" height="10" rx="2" ry="2" width="10" x="325" y="108" /><rect fill="#161b22" height="10" rx="2" ry="2" width="10" x="338" y="30" /><rect fill="#161b22" height="10" rx="2" ry="2" width="10" x="338" y="43" /><rect fill="#0e4429" height="10" rx="2" ry="2" width="10" x="338" y="56" /><rect fill="#161b22" height="10" rx="2" ry="2" width="10" x="338" y="69" /><rect fill="#006d32" height="10" rx="2" ry="2" width="10" x="338" y="82" /><rect fill="#161b22" height="10" rx="2" ry="2" width="10" x="338" y="95" /><rect fill="#161b22" height="10" rx="2" ry="2" width="10" x="338" y="108" /><rect fill="#161b22" height="10" rx="2" ry="2" width="10" x="351" y="30" /><rect fill="#006d32" height="10" rx="2" ry="2" width="10" x="351" y="43" /><rect fill="#26a641" height="10" rx="2" ry="2" width="10" x="351" y="56" /><rect fill="#161b22" height="10" rx="2" ry="2" width="10" x="351" y="69" /><rect fill="#161b22" height="10" rx="2" ry="2" width="10" x="351" y="82" /><rect fill="#0e4429" height="10" rx="2" ry="2" width="10" x="351" y="95" /><rect fill="#161b22" height="10" rx="2" ry="2" width="10" x="351" y="108" /><rect fill="#161b22" height="10" rx="2" ry="2" width="10" x="364" y="30" /><rect fill="#0e4429" height="10" rx="2" ry="2" width="10" x="364" y="43" /><rect fill="#006d32" height="10" rx="2" ry="2" width="10" x="364" y="56" /><rect fill="#006d32" height="10" rx="2" ry="2" width="10" x="364" y="69" /><rect fill="#26a641" height="10" rx="2" ry="2" width="10" x="364" y="82" /><rect fill="#0e4429" height="10" rx="2" ry="2" width="10" x="364" y="95" /><rect fill="#161b22" height="10" rx="2" ry="2" width="10" x="364" y="108" /><rect fill="#161b22" height="10" rx="2" ry="2" width="10" x="377" y="30" /><rect fill="#0e4429" height="10" rx="2" ry="2" width="10" x="377" y="43" /><rect fill="#006d32" height="10" rx="2" ry="2" width="10" x="377" y="56" /><rect fill="#006d32" height="10" rx="2" ry="2" width="10" x="377" y="69" /><rect fill="#0e4429" height="10" rx="2" ry="2" width="10" x="377" y="82" /><rect fill="#006d32" height="10" rx="2" ry="2" width="10" x="377" y="95" /><rect fill="#161b22" height="10" rx="2" ry="2" width="10" x="377" y="108" /><rect fill="#161b22" height="10" rx="2" ry="2" width="10" x="390" y="30" /><rect fill="#0e4429" height="10" rx="2" ry="2" width="10" x="390" y="43" /><rect fill="#0e4429" height="10" rx="2" ry="2" width="10" x="390" y="56" /><rect fill="#161b22" height="10" rx="2" ry="2" width="10" x="390" y="69" /><rect fill="#0e4429" height="10" rx="2" ry="2" width="10" x="390" y="82" /><rect fill="#39d353" height="10" rx="2" ry="2" width="10" x="390" y="95" /><rect fill="#161b22" height="10" rx="2" ry="2" width="10" x="390" y="108" /><rect fill="#161b22" height="10" rx="2" ry="2" width="10" x="403" y="30" /><rect fill="#161b22" height="10" rx="2" ry="2" width="10" x="403" y="43" /><rect fill="#161b22" height="10" rx="2" ry="2" width="10" x="403" y="56" /><rect fill="#006d32" height="10" rx="2" ry="2" width="10" x="403" y="69" /><rect fill="#39d353" height="10" rx="2" ry="2" width="10" x="403" y="82" /><rect fill="#0e4429" height="10" rx="2" ry="2" width="10" x="403" y="95" /><rect fill="#161b22" height="10" rx="2" ry="2" width="10" x="403" y="108" /><rect fill="#161b22" height="10" rx="2" ry="2" width="10" x="416" y="30" /><rect fill="#161b22" height="10" rx="2" ry="2" width="10" x="416" y="43" /><rect fill="#0e4429" height="10" rx="2" ry="2" width="10" x="416" y="56" /><rect fill="#006d32" height="10" rx="2" ry="2" width="10" x="416" y="69" /><rect fill="#26a641" height="10" rx="2" ry="2" width="10" x="416" y="82" /><rect fill="#26a641" height="10" rx="2" ry="2" width="10" x="416" y="95" /><rect fill="#161b22" height="10" rx="2" ry="2" width="10" x="416" y="108" /><rect fill="#161b22" height="10" rx="2" ry="2" width="10" x="429" y="30" /><rect fill="#26a641" height="10" rx="2" ry="2" width="10" x="429" y="43" /><rect fill="#161b22" height="10" rx="2" ry="2" width="10" x="429" y="56" /><rect fill="#161b22" height="10" rx="2" ry="2" width="10" x="429" y="69" /><rect fill="#161b22" height="10" rx="2" ry="2" width="10" x="429" y="82" /><rect fill="#161b22" height="10" rx="2" ry="2" width="10" x="429" y="95" /><rect fill="#161b22" height="10" rx="2" ry="2" width="10" x="429" y="108" /><rect fill="#161b22" height="10" rx="2" ry="2" width="10" x="442" y="30" /><rect fill="#0e4429" height="10" rx="2" ry="2" width="10" x="442" y="43" /><rect fill="#0e4429" height="10" rx="2" ry="2" width="10" x="442" y="56" /><rect fill="#0e4429" height="10" rx="2" ry="2" width="10" x="442" y="69" /><rect fill="#161b22" height="10" rx="2" ry="2" width="10" x="442" y="82" /><rect fill="#161b22" height="10" rx="2" ry="2" width="10" x="442" y="95" /><rect fill="#161b22" height="10" rx="2" ry="2" width="10" x="442" y="108" /><rect fill="#161b22" height="10" rx="2" ry="2" width="10" x="455" y="30" /><rect fill="#161b22" height="10" rx="2" ry="2" width="10" x="455" y="43" /><rect fill="#161b22" height="10" rx="2" ry="2" width="10" x="455" y="56" /><rect fill="#39d353" height="10" rx="2" ry="2" width="10" x="455" y="69" /><rect fill="#161b22" height="10" rx="2" ry="2" width="10" x="455" y="82" /><rect fill="#161b22" height="10" rx="2" ry="2" width="10" x="455" y="95" /><rect fill="#161b22" height="10" rx="2" ry="2" width="10" x="455" y="108" /><rect fill="#161b22" height="10" rx="2" ry="2" width="10" x="468" y="30" /><rect fill="#0e4429" height="10" rx="2" ry="2" width="10" x="468" y="43" /><rect fill="#161b22" height="10" rx="2" ry="2" width="10" x="468" y="56" /><rect fill="#006d32" height="10" rx="2" ry="2" width="10" x="468" y="69" /><rect fill="#161b22" height="10" rx="2" ry="2" width="10" x="468" y="82" /><rect fill="#161b22" height="10" rx="2" ry="2" width="10" x="468" y="95" /><rect fill="#161b22" height="10" rx="2" ry="2" width="10" x="468" y="108" /><rect fill="#161b22" height="10" rx="2" ry="2" width="10" x="481" y="30" /><rect fill="#006d32" height="10" rx="2" ry="2" width="10" x="481" y="43" /><rect fill="#26a641" height="10" rx="2" ry="2" width="10" x="481" y="56" /><rect fill="#39d353" height="10" rx="2" ry="2" width="10" x="481" y="69" /><rect fill="#006d32" height="10" rx="2" ry="2" width="10" x="481" y="82" /><rect fill="#161b22" height="10" rx="2" ry="2" width="10" x="481" y="95" /><rect fill="#161b22" height="10" rx="2" ry="2" width="10" x="481" y="108" /><rect fill="#161b22" height="10" rx="2" ry="2" width="10" x="494" y="30" /><rect fill="#39d353" height="10" rx="2" ry="2" width="10" x="494" y="43" /><rect fill="#0e4429" height="10" rx="2" ry="2" width="10" x="494" y="56" /><rect fill="#006d32" height="10" rx="2" ry="2" width="10" x="494" y="69" /><rect fill="#161b22" height="10" rx="2" ry="2" width="10" x="494" y="82" /><rect fill="#161b22" height="10" rx="2" ry="2" width="10" x="494" y="95" /><rect fill="#161b22" height="10" rx="2" ry="2" width="10" x="494" y="108" /><rect fill="#161b22" height="10" rx="2" ry="2" width="10" x="507" y="30" /><rect fill="#161b22" height="10" rx="2" ry="2" width="10" x="507" y="43" /><rect fill="#161b22" height="10" rx="2" ry="2" width="10" x="507" y="56" /><rect fill="#0e4429" height="10" rx="2" ry="2" width="10" x="507" y="69" /><rect fill="#161b22" height="10" rx="2" ry="2" width="10" x="507" y="82" /><rect fill="#161b22" height="10" rx="2" ry="2" width="10" x="507" y="95" /><rect fill="#161b22" height="10" rx="2" ry="2" width="10" x="507" y="108" /><rect fill="#161b22" height="10" rx="2" ry="2" width="10" x="520" y="30" /><rect fill="#161b22" height="10" rx="2" ry="2" width="10" x="520" y="43" /><rect fill="#161b22" height="10" rx="2" ry="2" width="10" x="520" y="56" /><rect fill="#161b22" height="10" rx="2" ry="2" width="10" x="520" y="69" /><rect fill="#161b22" height="10" rx="2" ry="2" width="10" x="520" y="82" /><rect fill="#161b22" height="10" rx="2" ry="2" width="10" x="520" y="95" /><rect fill="#161b22" height="10" rx="2" ry="2" width="10" x="520" y="108" /><rect fill="#161b22" height="10" rx="2" ry="2" width="10" x="533" y="30" /><rect fill="#161b22" height="10" rx="2" ry="2" width="10" x="533" y="43" /><rect fill="#161b22" height="10" rx="2" ry="2" width="10" x="533" y="56" /><rect fill="#161b22" height="10" rx="2" ry="2" width="10" x="533" y="69" /><rect fill="#0e4429" height="10" rx="2" ry="2" width="10" x="533" y="82" /><rect fill="#006d32" height="10" rx="2" ry="2" width="10" x="533" y="95" /><rect fill="#161b22" height="10" rx="2" ry="2" width="10" x="533" y="108" /><rect fill="#161b22" height="10" rx="2" ry="2" width="10" x="546" y="30" /><rect fill="#26a641" height="10" rx="2" ry="2" width="10" x="546" y="43" /><rect fill="#161b22" height="10" rx="2" ry="2" width="10" x="546" y="56" /><rect fill="#161b22" height="10" rx="2" ry="2" width="10" x="546" y="69" /><rect fill="#26a641" height="10" rx="2" ry="2" width="10" x="546" y="82" /><rect fill="#0e4429" height="10" rx="2" ry="2" width="10" x="546" y="95" /><rect fill="#161b22" height="10" rx="2" ry="2" width="10" x="546" y="108" /><rect fill="#161b22" height="10" rx="2" ry="2" width="10" x="559" y="30" /><rect fill="#161b22" height="10" rx="2" ry="2" width="10" x="559" y="43" /><rect fill="#0e4429" height="10" rx="2" ry="2" width="10" x="559" y="56" /><rect fill="#161b22" height="10" rx="2" ry="2" width="10" x="559" y="69" /><rect fill="#161b22" height="10" rx="2" ry="2" width="10" x="559" y="82" /><rect fill="#161b22" height="10" rx="2" ry="2" width="10" x="559" y="95" /><rect fill="#161b22" height="10" rx="2" ry="2" width="10" x="559" y="108" /><rect fill="#161b22" height="10" rx="2" ry="2" width="10" x="572" y="30" /><rect fill="#161b22" height="10" rx="2" ry="2" width="10" x="572" y="43" /><rect fill="#161b22" height="10" rx="2" ry="2" width="10" x="572" y="56" /><rect fill="#006d32" height="10" rx="2" ry="2" width="10" x="572" y="69" /><rect fill="#161b22" height="10" rx="2" ry="2" width="10" x="572" y="82" /><rect fill="#0e4429" height="10" rx="2" ry="2" width="10" x="572" y="95" /><rect fill="#161b22" height="10" rx="2" ry="2" width="10" x="572" y="108" /><rect fill="#161b22" height="10" rx="2" ry="2" width="10" x="585" y="30" /><rect fill="#161b22" height="10" rx="2" ry="2" width="10" x="585" y="43" /><rect fill="#161b22" height="10" rx="2" ry="2" width="10" x="585" y="56" /><rect fill="#161b22" height="10" rx="2" ry="2" width="10" x="585" y="69" /><rect fill="#161b22" height="10" rx="2" ry="2" width="10" x="585" y="82" /><rect fill="#161b22" height="10" rx="2" ry="2" width="10" x="585" y="95" /><rect fill="#161b22" height="10" rx="2" ry="2" width="10" x="585" y="108" /><rect fill="#161b22" height="10" rx="2" ry="2" width="10" x="598" y="30" /><rect fill="#161b22" height="10" rx="2" ry="2" width="10" x="598" y="43" /><rect fill="#161b22" height="10" rx="2" ry="2" width="10" x="598" y="56" /><rect fill="#161b22" height="10" rx="2" ry="2" width="10" x="598" y="69" /><rect fill="#161b22" height="10" rx="2" ry="2" width="10" x="598" y="82" /><rect fill="#161b22" height="10" rx="2" ry="2" width="10" x="598" y="95" /><rect fill="#161b22" height="10" rx="2" ry="2" width="10" x="598" y="108" /><rect fill="#161b22" height="10" rx="2" ry="2" width="10" x="611" y="30" /><rect fill="#161b22" height="10" rx="2" ry="2" width="10" x="611" y="43" /><rect fill="#161b22" height="10" rx="2" ry="2" width="10" x="611" y="56" /><rect fill="#0e4429" height="10" rx="2" ry="2" width="10" x="611" y="69" /><rect fill="#161b22" height="10" rx="2" ry="2" width="10" x="611" y="82" /><rect fill="#0e4429" height="10" rx="2" ry="2" width="10" x="611" y="95" /><rect fill="#161b22" height="10" rx="2" ry="2" width="10" x="611" y="108" /><rect fill="#161b22" height="10" rx="2" ry="2" width="10" x="624" y="30" /><rect fill="#161b22" height="10" rx="2" ry="2" width="10" x="624" y="43" /><rect fill="#006d32" height="10" rx="2" ry="2" width="10" x="624" y="56" /><rect fill="#161b22" height="10" rx="2" ry="2" width="10" x="624" y="69" /><rect fill="#161b22" height="10" rx="2" ry="2" width="10" x="624" y="82" /><rect fill="#161b22" height="10" rx="2" ry="2" width="10" x="624" y="95" /><rect fill="#161b22" height="10" rx="2" ry="2" width="10" x="624" y="108" /><rect fill="#161b22" height="10" rx="2" ry="2" width="10" x="637" y="30" /><rect fill="#006d32" height="10" rx="2" ry="2" width="10" x="637" y="43" /><rect fill="#006d32" height="10" rx="2" ry="2" width="10" x="637" y="56" /><rect fill="#006d32" height="10" rx="2" ry="2" width="10" x="637" y="69" /><rect fill="#26a641" height="10" rx="2" ry="2" width="10" x="637" y="82" /><rect fill="#26a641" height="10" rx="2" ry="2" width="10" x="637" y="95" /><rect fill="#161b22" height="10" rx="2" ry="2" width="10" x="637" y="108" /><rect fill="#161b22" height="10" rx="2" ry="2" width="10" x="650" y="30" /><rect fill="#006d32" height="10" rx="2" ry="2" width="10" x="650" y="43" /><rect fill="#161b22" height="10" rx="2" ry="2" width="10" x="650" y="56" /><rect fill="#0e4429" height="10" rx="2" ry="2" width="10" x="650" y="69" /><rect fill="#26a641" height="10" rx="2" ry="2" width="10" x="650" y="82" /><rect fill="#26a641" height="10" rx="2" ry="2" width="10" x="650" y="95" /><rect fill="#161b22" height="10" rx="2" ry="2" width="10" x="650" y="108" /><rect fill="#161b22" height="10" rx="2" ry="2" width="10" x="663" y="30" /><rect fill="#39d353" height="10" rx="2" ry="2" width="10" x="663" y="43" /><rect fill="#006d32" height="10" rx="2" ry="2" width="10" x="663" y="56" /><rect fill="#26a641" height="10" rx="2" ry="2" width="10" x="663" y="69" /><rect fill="#006d32" height="10" rx="2" ry="2" width="10" x="663" y="82" /><rect fill="#39d353" height="10" rx="2" ry="2" width="10" x="663" y="95" /><rect fill="#161b22" height="10" rx="2" ry="2" width="10" x="663" y="108" /><rect fill="#161b22" height="10" rx="2" ry="2" width="10" x="676" y="30" /><rect fill="#39d353" height="10" rx="2" ry="2" width="10" x="676" y="43" /><rect fill="#0e4429" height="10" rx="2" ry="2" width="10" x="676" y="56" /><rect fill="#26a641" height="10" rx="2" ry="2" width="10" x="676" y="69" /></svg>