<?xml version="1.0" encoding="utf-8" ?>
<svg baseProfile="full" height="178px" version="1.1" width="742px" xmlns="http://www.w3.org/2000/svg" xmlns:ev="http://www.w3.org/2001/xml-events" xmlns:xlink="http://www.w3.org/1999/xlink"><defs /><rect fill="#0d1117" height="178" rx="6" ry="6" stroke="#30363d" stroke-width="1" width="742" x="0" y="0" /><text fill="#e6edf3" style="font-family: -apple-system, BlinkMacSystemFont, 'Segoe UI', 'Noto Sans', Helvetica, Arial, sans-serif; font-size: 14px;" x="44" y="26">1,971 contributions in the last year</text><text fill="#9198a1" style="font-family: -apple-system, BlinkMacSystemFont, 'Segoe UI', 'Noto Sans', Helvetica, Arial, sans-serif; font-size: 12px;" x="44" y="44">Apr</text><text fill="#9198a1" style="font-family: -apple-system, BlinkMacSystemFont, 'Segoe UI', 'Noto Sans', Helvetica, Arial, sans-serif; font-size: 12px;" x="96" y="44">May</text><text fill="#9198a1" style="font-family: -apple-system, BlinkMacSystemFont, 'Segoe UI', 'Noto Sans', Helvetica, Arial, sans-serif; font-size: 12px;" x="148" y="44">Jun</text><text fill="#9198a1" style="font-family: -apple-system, BlinkMacSystemFont, 'Segoe UI', 'Noto Sans', Helvetica, Arial, sans-serif; font-size: 12px;" x="213" y="44">Jul</text><text fill="#9198a1" style="font-family: -apple-system, BlinkMacSystemFont, 'Segoe UI', 'Noto Sans', Helvetica, Arial, sans-serif; font-size: 12px;" x="265" y="44">Aug</text><text fill="#9198a1" style="font-family: -apple-system, BlinkMacSystemFont, 'Segoe UI', 'Noto Sans', Helvetica, Arial, sans-serif; font-size: 12px;" x="330" y="44">Sep</text><text fill="#9198a1" style="font-family: -apple-system, BlinkMacSystemFont, 'Segoe UI', 'Noto Sans', Helvetica, Arial, sans-serif; font-size: 12px;" x="382" y="44">Oct</text><text fill="#9198a1" style="font-family: -apple-system, BlinkMacSystemFont, 'Segoe UI', 'Noto Sans', Helvetica, Arial, sans-serif; font-size: 12px;" x="434" y="44">Nov</text><text fill="#9198a1" style="font-family: -apple-system, BlinkMacSystemFont, 'Segoe UI', 'Noto Sans', Helvetica, Arial, sans-serif; font-size: 12px;" x="499" y="44">Dec</text><text fill="#9198a1" style="font-family: -apple-system, BlinkMacSystemFont, 'Segoe UI', 'Noto Sans', Helvetica, Arial, sans-serif; font-size: 12px;" x="551" y="44">Jan</text><text fill="#9198a1" style="font-family: -apple-system, BlinkMacSystemFont, 'Segoe UI', 'Noto Sans', Helvetica, Arial, sans-serif; font-size: 12px;" x="603" y="44">Feb</text><text fill="#9198a1" style="font-family: -apple-system, BlinkMacSystemFont, 'Segoe UI', 'Noto Sans', Helvetica, Arial, sans-serif; font-size: 12px;" x="655" y="44">Mar</text><text fill="#9198a1" style="font-family: -apple-system, BlinkMacSystemFont, 'Segoe UI', 'Noto Sans', Helvetica, Arial, sans-serif; font-size: 12px;" text-anchor="end" x="38" y="72">Mon</text><text fill="#9198a1" style="font-family: -apple-system, BlinkMacSystemFont, 'Segoe UI', 'Noto Sans', Helvetica, Arial, sans-serif; font-size: 12px;" text-anchor="end" x="38" y="98">Wed</text><text fill="#9198a1" style="font-family: -apple-system, BlinkMacSystemFont, 'Segoe UI', 'Noto Sans', Helvetica, Arial, sans-serif; font-size: 12px;" text-anchor="end" x="38" y="124">Fri</text><rect fill="#161b22" height="10" rx="2" ry="2" width="10" x="44" y="102" /><rect fill="#161b22" height="10" rx="2" ry="2" width="10" x="44" y="115" /><rect fill="#161b22" height="10" rx="2" ry="2" width="10" x="44" y="128" /><rect fill="#161b22" height="10" rx="2" ry="2" width="10" x="57" y="50" /><rect fill="#39d353" height="10" rx="2" ry="2" width="10" x="57" y="63" /><rect fill="#0e4429" height="10" rx="2" ry="2" width="10" x="57" y="76" /><rect fill="#006d32" height="10" rx="2" ry="2" width="10" x="57" y="89" /><rect fill="#161b22" height="10" rx="2" ry="2" width="10" x="57" y="102" /><rect fill="#161b22" height="10" rx="2" ry="2" width="10" x="57" y="115" /><rect fill="#161b22" height="10" rx="2" ry="2" width="10" x="57" y="128" /><rect fill="#161b22" height="10" rx="2" ry="2" width="10" x="70" y="50" /><rect fill="#161b22" height="10" rx="2" ry="2" width="10" x="70" y="63" /><rect fill="#161b22" height="10" rx="2" ry="2" width="10" x="70" y="76" /><rect fill="#0e4429" height="10" rx="2" ry="2" width="10" x="70" y="89" /><rect fill="#161b22" height="10" rx="2" ry="2" width="10" x="70" y="102" /><rect fill="#161b22" height="10" rx="2" ry="2" width="10" x="70" y="115" /><rect fill="#161b22" height="10" rx="2" ry="2" width="10" x="70" y="128" /><rect fill="#161b22" height="10" rx="2" ry="2" width="10" x="83" y="50" /><rect fill="#161b22" height="10" rx="2" ry="2" width="10" x="83" y="63" /><rect fill="#161b22" height="10" rx="2" ry="2" width="10" x="83" y="76" /><rect fill="#161b22" height="10" rx="2" ry="2" width="10" x="83" y="89" /><rect fill="#161b22" height="10" rx="2" ry="2" width="10" x="83" y="102" /><rect fill="#161b22" height="10" rx="2" ry="2" width="10" x="83" y="115" /><rect fill="#161b22" height="10" rx="2" ry="2" width="10" x="83" y="128" /><rect fill="#161b22" height="10" rx="2" ry="2" width="10" x="96" y="50" /><rect fill="#161b22" height="10" rx="2" ry="2" width="10" x="96" y="63" /><rect fill="#161b22" height="10" rx="2" ry="2" width="10" x="96" y="76" /><rect fill="#161b22" height="10" rx="2" ry="2" width="10" x="96" y="89" /><rect fill="#0e4429" height="10" rx="2" ry="2" width="10" x="96" y="102" /><rect fill="#006d32" height="10" rx="2" ry="2" width="10" x="96" y="115" /><rect fill="#161b22" height="10" rx="2" ry="2" width="10" x="96" y="128" /><rect fill="#161b22" height="10" rx="2" ry="2" width="10" x="109" y="50" /><rect fill="#26a641" height="10" rx="2" ry="2" width="10" x="109" y="63" /><rect fill="#161b22" height="10" rx="2" ry="2" width="10" x="109" y="76" /><rect fill="#161b22" height="10" rx="2" ry="2" width="10" x="109" y="89" /><rect fill="#26a641" height="10" rx="2" ry="2" width="10" x="109" y="102" /><rect fill="#0e4429" height="10" rx="2" ry="2" width="10" x="109" y="115" /><rect fill="#161b22" height="10" rx="2" ry="2" width="10" x="109" y="128" /><rect fill="#161b22" height="10" rx="2" ry="2" width="10" x="122" y="50" /><rect fill="#161b22" height="10" rx="2" ry="2" width="10" x="122" y="63" /><rect fill="#0e4429" height="10" rx="2" ry="2" width="10" x="122" y="76" /><rect fill="#161b22" height="10" rx="2" ry="2" width="10" x="122" y="89" /><rect fill="#161b22" height="10" rx="2" ry="2" width="10" x="122" y="102" /><rect fill="#161b22" height="10" rx="2" ry="2" width="10" x="122" y="115" /><rect fill="#161b22" height="10" rx="2" ry="2" width="10" x="122" y="128" /><rect fill="#161b22" height="10" rx="2" ry="2" width="10" x="135" y="50" /><rect fill="#161b22" height="10" rx="2" ry="2" width="10" x="135" y="63" /><rect fill="#161b22" height="10" rx="2" ry="2" width="10" x="135" y="76" /><rect fill="#006d32" height="10" rx="2" ry="2" width="10" x="135" y="89" /><rect fill="#161b22" height="10" rx="2" ry="2" width="10" x="135" y="102" /><rect fill="#0e4429" height="10" rx="2" ry="2" width="10" x="135" y="115" /><rect fill="#161b22" height="10" rx="2" ry="2" width="10" x="135" y="128" /><rect fill="#161b22" height="10" rx="2" ry="2" width="10" x="148" y="50" /><rect fill="#161b22" height="10" rx="2" ry="2" width="10" x="148" y="63" /><rect fill="#161b22" height="10" rx="2" ry="2" width="10" x="148" y="76" /><rect fill="#161b22" height="10" rx="2" ry="2" width="10" x="148" y="89" /><rect fill="#161b22" height="10" rx="2" ry="2" width="10" x="148" y="102" /><rect fill="#161b22" height="10" rx="2" ry="2" width="10" x="148" y="115" /><rect fill="#161b22" height="10" rx="2" ry="2" width="10" x="148" y="128" /><rect fill="#161b22" height="10" rx="2" ry="2" width="10" x="161" y="50" /><rect fill="#161b22" height="10" rx="2" ry="2" width="10" x="161" y="63" /><rect fill="#161b22" height="10" rx="2" ry="2" width="10" x="161" y="76" /><rect fill="#161b22" height="10" rx="2" ry="2" width="10" x="161" y="89" /><rect fill="#161b22" height="10" rx="2" ry="2" width="10" x="161" y="102" /><rect fill="#161b22" height="10" rx="2" ry="2" width="10" x="161" y="115" /><rect fill="#161b22" height="10" rx="2" ry="2" width="10" x="161" y="128" /><rect fill="#161b22" height="10" rx="2" ry="2" width="10" x="174" y="50" /><rect fill="#161b22" height="10" rx="2" ry="2" width="10" x="174" y="63" /><rect fill="#161b22" height="10" rx="2" ry="2" width="10" x="174" y="76" /><rect fill="#0e4429" height="10" rx="2" ry="2" width="10" x="174" y="89" /><rect fill="#161b22" height="10" rx="2" ry="2" width="10" x="174" y="102" /><rect fill="#0e4429" height="10" rx="2" ry="2" width="10" x="174" y="115" /><rect fill="#161b22" height="10" rx="2" ry="2" width="10" x="174" y="128" /><rect fill="#161b22" height="10" rx="2" ry="2" width="10" x="187" y="50" /><rect fill="#161b22" height="10" rx="2" ry="2" width="10" x="187" y="63" /><rect fill="#006d32" height="10" rx="2" ry="2" width="10" x="187" y="76" /><rect fill="#161b22" height="10" rx="2" ry="2" width="10" x="187" y="89" /><rect fill="#161b22" height="10" rx="2" ry="2" width="10" x="187" y="102" /><rect fill="#161b22" height="10" rx="2" ry="2" width="10" x="187" y="115" /><rect fill="#161b22" height="10" rx="2" ry="2" width="10" x="187" y="128" /><rect fill="#161b22" height="10" rx="2" ry="2" width="10" x="200" y="50" /><rect fill="#006d32" height="10" rx="2" ry="2" width="10" x="200" y="63" /><rect fill="#006d32" height="10" rx="2" ry="2" width="10" x="200" y="76" /><rect fill="#006d32" height="10" rx="2" ry="2" width="10" x="200" y="89" /><rect fill="#26a641" height="10" rx="2" ry="2" width="10" x="200" y="102" /><rect fill="#26a641" height="10" rx="2" ry="2" width="10" x="200" y="115" /><rect fill="#161b22" height="10" rx="2" ry="2" width="10" x="200" y="128" /><rect fill="#161b22" height="10" rx="2" ry="2" width="10" x="213" y="50" /><rect fill="#006d32" height="10" rx="2" ry="2" width="10" x="213" y="63" /><rect fill="#161b22" height="10" rx="2" ry="2" width="10" x="213" y="76" /><rect fill="#0e4429" height="10" rx="2" ry="2" width="10" x="213" y="89" /><rect fill="#26a641" height="10" rx="2" ry="2" width="10" x="213" y="102" /><rect fill="#26a641" height="10" rx="2" ry="2" width="10" x="213" y="115" /><rect fill="#161b22" height="10" rx="2" ry="2" width="10" x="213" y="128" /><rect fill="#161b22" height="10" rx="2" ry="2" width="10" x="226" y="50" /><rect fill="#39d353" height="10" rx="2" ry="2" width="10" x="226" y="63" /><rect fill="#006d32" height="10" rx="2" ry="2" width="10" x="226" y="76" /><rect fill="#26a641" height="10" rx="2" ry="2" width="10" x="226" y="89" /><rect fill="#006d32" height="10" rx="2" ry="2" width="10" x="226" y="102" /><rect fill="#39d353" height="10" rx="2" ry="2" width="10" x="226" y="115" /><rect fill="#161b22" height="10" rx="2" ry="2" width="10" x="226" y="128" /><rect fill="#161b22" height="10" rx="2" ry="2" width="10" x="239" y="50" /><rect fill="#39d353" height="10" rx="2" ry="2" width="10" x="239" y="63" /><rect fill="#0e4429" height="10" rx="2" ry="2" width="10" x="239" y="76" /><rect fill="#39d353" height="10" rx="2" ry="2" width="10" x="239" y="89" /><rect fill="#26a641" height="10" rx="2" ry="2" width="10" x="239" y="102" /><rect fill="#161b22" height="10" rx="2" ry="2" width="10" x="239" y="115" /><rect fill="#161b22" height="10" rx="2" ry="2" width="10" x="239" y="128" /><rect fill="#161b22" height="10" rx="2" ry="2" width="10" x="252" y="50" /><rect fill="#006d32" height="10" rx="2" ry="2" width="10" x="252" y="63" /><rect fill="#26a641" height="10" rx="2" ry="2" width="10" x="252" y="76" /><rect fill="#39d353" height="10" rx="2" ry="2" width="10" x="252" y="89" /><rect fill="#39d353" height="10" rx="2" ry="2" width="10" x="252" y="102" /><rect fill="#26a641" height="10" rx="2" ry="2" width="10" x="252" y="115" /><rect fill="#161b22" height="10" rx="2" ry="2" width="10" x="252" y="128" /><rect fill="#161b22" height="10" rx="2" ry="2" width="10" x="265" y="50" /><rect fill="#0e4429" height="10" rx="2" ry="2" width="10" x="265" y="63" /><rect fill="#39d353" height="10" rx="2" ry="2" width="10" x="265" y="76" /><rect fill="#26a641" height="10" rx="2" ry="2" width="10" x="265" y="89" /><rect fill="#26a641" height="10" rx="2" ry="2" width="10" x="265" y="102" /><rect fill="#006d32" height="10" rx="2" ry="2" width="10" x="265" y="115" /><rect fill="#161b22" height="10" rx="2" ry="2" width="10" x="265" y="128" /><rect fill="#161b22" height="10" rx="2" ry="2" width="10" x="278" y="50" /><rect fill="#39d353" height="10" rx="2" ry="2" width="10" x="278" y="63" /><rect fill="#39d353" height="10" rx="2" ry="2" width="10" x="278" y="76" /><rect fill="#26a641" height="10" rx="2" ry="2" width="10" x="278" y="89" /><rect fill="#0e4429" height="10" rx="2" ry="2" width="10" x="278" y="102" /><rect fill="#26a641" height="10" rx="2" ry="2" width="10" x="278" y="115" /><rect fill="#161b22" height="10" rx="2" ry="2" width="10" x="278" y="128" /><rect fill="#161b22" height="10" rx="2" ry="2" width="10" x="291" y="50" /><rect fill="#0e4429" height="10" rx="2" ry="2" width="10" x="291" y="63" /><rect fill="#006d32" height="10" rx="2" ry="2" width="10" x="291" y="76" /><rect fill="#006d32" height="10" rx="2" ry="2" width="10" x="291" y="89" /><rect fill="#26a641" height="10" rx="2" ry="2" width="10" x="291" y="102" /><rect fill="#161b22" height="10" rx="2" ry="2" width="10" x="291" y="115" /><rect fill="#161b22" height="10" rx="2" ry="2" width="10" x="291" y="128" /><rect fill="#161b22" height="10" rx="2" ry="2" width="10" x="304" y="50" /><rect fill="#006d32" height="10" rx="2" ry="2" width="10" x="304" y="63" /><rect fill="#161b22" height="10" rx="2" ry="2" width="10" x="304" y="76" /><rect fill="#161b22" height="10" rx="2" ry="2" width="10" x="304" y="89" /><rect fill="#006d32" height="10" rx="2" ry="2" width="10" x="304" y="102" /><rect fill="#161b22" height="10" rx="2" ry="2" width="10" x="304" y="115" /><rect fill="#161b22" height="10" rx="2" ry="2" width="10" x="304" y="128" /><rect fill="#161b22" height="10" rx="2" ry="2" width="10" x="317" y="50" /><rect fill="#006d32" height="10" rx="2" ry="2" width="10" x="317" y="63" /><rect fill="#161b22" height="10" rx="2" ry="2" width="10" x="317" y="76" /><rect fill="#161b22" height="10" rx="2" ry="2" width="10" x="317" y="89" /><rect fill="#161b22" height="10" rx="2" ry="2" width="10" x="317" y="102" /><rect fill="#161b22" height="10" rx="2" ry="2" width="10" x="317" y="115" /><rect fill="#161b22" height="10" rx="2" ry="2" width="10" x="317" y="128" /><rect fill="#161b22" height="10" rx="2" ry="2" width="10" x="330" y="50" /><rect fill="#161b22" height="10" rx="2" ry="2" width="10" x="330" y="63" /><rect fill="#161b22" height="10" rx="2" ry="2" width="10" x="330" y="76" /><rect fill="#161b22" height="10" rx="2" ry="2" width="10" x="330" y="89" /><rect fill="#006d32" height="10" rx="2" ry="2" width="10" x="330" y="102" /><rect fill="#161b22" height="10" rx="2" ry="2" width="10" x="330" y="115" /><rect fill="#161b22" height="10" rx="2" ry="2" width="10" x="330" y="128" /><rect fill="#161b22" height="10" rx="2" ry="2" width="10" x="343" y="50" /><rect fill="#161b22" height="10" rx="2" ry="2" width="10" x="343" y="63" /><rect fill="#161b22" height="10" rx="2" ry="2" width="10" x="343" y="76" /><rect fill="#161b22" height="10" rx="2" ry="2" width="10" x="343" y="89" /><rect fill="#161b22" height="10" rx="2" ry="2" width="10" x="343" y="102" /><rect fill="#161b22" height="10" rx="2" ry="2" width="10" x="343" y="115" /><rect fill="#161b22" height="10" rx="2" ry="2" width="10" x="343" y="128" /><rect fill="#161b22" height="10" rx="2" ry="2" width="10" x="356" y="50" /><rect fill="#161b22" height="10" rx="2" ry="2" width="10" x="356" y="63" /><rect fill="#161b22" height="10" rx="2" ry="2" width="10" x="356" y="76" /><rect fill="#161b22" height="10" rx="2" ry="2" width="10" x="356" y="89" /><rect fill="#161b22" height="10" rx="2" ry="2" width="10" x="356" y="102" /><rect fill="#0e4429" height="10" rx="2" ry="2" width="10" x="356" y="115" /><rect fill="#161b22" height="10" rx="2" ry="2" width="10" x="356" y="128" /><rect fill="#161b22" height="10" rx="2" ry="2" width="10" x="369" y="50" /><rect fill="#161b22" height="10" rx="2" ry="2" width="10" x="369" y="63" /><rect fill="#161b22" height="10" rx="2" ry="2" width="10" x="369" y="76" /><rect fill="#161b22" height="10" rx="2" ry="2" width="10" x="369" y="89" /><rect fill="#161b22" height="10" rx="2" ry="2" width="10" x="369" y="102" /><rect fill="#161b22" height="10" rx="2" ry="2" width="10" x="369" y="115" /><rect fill="#161b22" height="10" rx="2" ry="2" width="10" x="369" y="128" /><rect fill="#161b22" height="10" rx="2" ry="2" width="10" x="382" y="50" /><rect fill="#161b22" height="10" rx="2" ry="2" width="10" x="382" y="63" /><rect fill="#161b22" height="10" rx="2" ry="2" width="10" x="382" y="76" /><rect fill="#161b22" height="10" rx="2" ry="2" width="10" x="382" y="89" /><rect fill="#0e4429" height="10" rx="2" ry="2" width="10" x="382" y="102" /><rect fill="#161b22" height="10" rx="2" ry="2" width="10" x="382" y="115" /><rect fill="#161b22" height="10" rx="2" ry="2" width="10" x="382" y="128" /><rect fill="#161b22" height="10" rx="2" ry="2" width="10" x="395" y="50" /><rect fill="#161b22" height="10" rx="2" ry="2" width="10" x="395" y="63" /><rect fill="#161b22" height="10" rx="2" ry="2" width="10" x="395" y="76" /><rect fill="#161b22" height="10" rx="2" ry="2" width="10" x="395" y="89" /><rect fill="#161b22" height="10" rx="2" ry="2" width="10" x="395" y="102" /><rect fill="#161b22" height="10" rx="2" ry="2" width="10" x="395" y="115" /><rect fill="#161b22" height="10" rx="2" ry="2" width="10" x="395" y="128" /><rect fill="#161b22" height="10" rx="2" ry="2" width="10" x="408" y="50" /><rect fill="#161b22" height="10" rx="2" ry="2" width="10" x="408" y="63" /><rect fill="#161b22" height="10" rx="2" ry="2" width="10" x="408" y="76" /><rect fill="#161b22" height="10" rx="2" ry="2" width="10" x="408" y="89" /><rect fill="#161b22" height="10" rx="2" ry="2" width="10" x="408" y="102" /><rect fill="#161b22" height="10" rx="2" ry="2" width="10" x="408" y="115" /><rect fill="#161b22" height="10" rx="2" ry="2" width="10" x="408" y="128" /><rect fill="#161b22" height="10" rx="2" ry="2" width="10" x="421" y="50" /><rect fill="#161b22" height="10" rx="2" ry="2" width="10" x="421" y="63" /><rect fill="#161b22" height="10" rx="2" ry="2" width="10" x="421" y="76" /><rect fill="#161b22" height="10" rx="2" ry="2" width="10" x="421" y="89" /><rect fill="#161b22" height="10" rx="2" ry="2" width="10" x="421" y="102" /><rect fill="#161b22" height="10" rx="2" ry="2" width="10" x="421" y="115" /><rect fill="#161b22" height="10" rx="2" ry="2" width="10" x="421" y="128" /><rect fill="#161b22" height="10" rx="2" ry="2" width="10" x="434" y="50" /><rect fill="#161b22" height="10" rx="2" ry="2" width="10" x="434" y="63" /><rect fill="#161b22" height="10" rx="2" ry="2" width="10" x="434" y="76" /><rect fill="#161b22" height="10" rx="2" ry="2" width="10" x="434" y="89" /><rect fill="#161b22" height="10" rx="2" ry="2" width="10" x="434" y="102" /><rect fill="#161b22" height="10" rx="2" ry="2" width="10" x="434" y="115" /><rect fill="#161b22" height="10" rx="2" ry="2" width="10" x="434" y="128" /><rect fill="#161b22" height="10" rx="2" ry="2" width="10" x="447" y="50" /><rect fill="#161b22" height="10" rx="2" ry="2" width="10" x="447" y="63" /><rect fill="#161b22" height="10" rx="2" ry="2" width="10" x="447" y="76" /><rect fill="#161b22" height="10" rx="2" ry="2" width="10" x="447" y="89" /><rect fill="#26a641" height="10" rx="2" ry="2" width="10" x="447" y="102" /><rect fill="#161b22" height="10" rx="2" ry="2" width="10" x="447" y="115" /><rect fill="#161b22" height="10" rx="2" ry="2" width="10" x="447" y="128" /><rect fill="#161b22" height="10" rx="2" ry="2" width="10" x="460" y="50" /><rect fill="#161b22" height="10" rx="2" ry="2" width="10" x="460" y="63" /><rect fill="#0e4429" height="10" rx="2" ry="2" width="10" x="460" y="76" /><rect fill="#161b22" height="10" rx="2" ry="2" width="10" x="460" y="89" /><rect fill="#161b22" height="10" rx="2" ry="2" width="10" x="460" y="102" /><rect fill="#161b22" height="10" rx="2" ry="2" width="10" x="460" y="115" /><rect fill="#161b22" height="10" rx="2" ry="2" width="10" x="460" y="128" /><rect fill="#161b22" height="10" rx="2" ry="2" width="10" x="473" y="50" /><rect fill="#161b22" height="10" rx="2" ry="2" width="10" x="473" y="63" /><rect fill="#161b22" height="10" rx="2" ry="2" width="10" x="473" y="76" /><rect fill="#006d32" height="10" rx="2" ry="2" width="10" x="473" y="89" /><rect fill="#161b22" height="10" rx="2" ry="2" width="10" x="473" y="102" /><rect fill="#0e4429" height="10" rx="2" ry="2" width="10" x="473" y="115" /><rect fill="#161b22" height="10" rx="2" ry="2" width="10" x="473" y="128" /><rect fill="#161b22" height="10" rx="2" ry="2" width="10" x="486" y="50" /><rect fill="#0e4429" height="10" rx="2" ry="2" width="10" x="486" y="63" /><rect fill="#161b22" height="10" rx="2" ry="2" width="10" x="486" y="76" /><rect fill="#161b22" height="10" rx="2" ry="2" width="10" x="486" y="89" /><rect fill="#161b22" height="10" rx="2" ry="2" width="10" x="486" y="102" /><rect fill="#0e4429" height="10" rx="2" ry="2" width="10" x="486" y="115" /><rect fill="#161b22" height="10" rx="2" ry="2" width="10" x="486" y="128" /><rect fill="#161b22" height="10" rx="2" ry="2" width="10" x="499" y="50" /><rect fill="#0e4429" height="10" rx="2" ry="2" width="10" x="499" y="63" /><rect fill="#39d353" height="10" rx="2" ry="2" width="10" x="499" y="76" /><rect fill="#0e4429" height="10" rx="2" ry="2" width="10" x="499" y="89" /><rect fill="#26a641" height="10" rx="2" ry="2" width="10" x="499" y="102" /><rect fill="#161b22" height="10" rx="2" ry="2" width="10" x="499" y="115" /><rect fill="#161b22" height="10" rx="2" ry="2" width="10" x="499" y="128" /><rect fill="#161b22" height="10" rx="2" ry="2" width="10" x="512" y="50" /><rect fill="#161b22" height="10" rx="2" ry="2" width="10" x="512" y="63" /><rect fill="#161b22" height="10" rx="2" ry="2" width="10" x="512" y="76" /><rect fill="#161b22" height="10" rx="2" ry="2" width="10" x="512" y="89" /><rect fill="#26a641" height="10" rx="2" ry="2" width="10" x="512" y="102" /><rect fill="#006d32" height="10" rx="2" ry="2" width="10" x="512" y="115" /><rect fill="#161b22" height="10" rx="2" ry="2" width="10" x="512" y="128" /><rect fill="#161b22" height="10" rx="2" ry="2" width="10" x="525" y="50" /><rect fill="#26a641" height="10" rx="2" ry="2" width="10" x="525" y="63" /><rect fill="#161b22" height="10" rx="2" ry="2" width="10" x="525" y="76" /><rect fill="#161b22" height="10" rx="2" ry="2" width="10" x="525" y="89" /><rect fill="#161b22" height="10" rx="2" ry="2" width="10" x="525" y="102" /><rect fill="#0e4429" height="10" rx="2" ry="2" width="10" x="525" y="115" /><rect fill="#161b22" height="10" rx="2" ry="2" width="10" x="525" y="128" /><rect fill="#161b22" height="10" rx="2" ry="2" width="10" x="538" y="50" /><rect fill="#161b22" height="10" rx="2" ry="2" width="10" x="538" y="63" /><rect fill="#006d32" height="10" rx="2" ry="2" width="10" x="538" y="76" /><rect fill="#161b22" height="10" rx="2" ry="2" width="10" x="538" y="89" /><rect fill="#161b22" height="10" rx="2" ry="2" width="10" x="538" y="102" /><rect fill="#161b22" height="10" rx="2" ry="2" width="10" x="538" y="115" /><rect fill="#161b22" height="10" rx="2" ry="2" width="10" x="538" y="128" /><rect fill="#161b22" height="10" rx="2" ry="2" width="10" x="551" y="50" /><rect fill="#39d353" height="10" rx="2" ry="2" width="10" x="551" y="63" /><rect fill="#161b22" height="10" rx="2" ry="2" width="10" x="551" y="76" /><rect fill="#161b22" height="10" rx="2" ry="2" width="10" x="551" y="89" /><rect fill="#0e4429" height="10" rx="2" ry="2" width="10" x="551" y="102" /><rect fill="#161b22" height="10" rx="2" ry="2" width="10" x="551" y="115" /><rect fill="#161b22" height="10" rx="2" ry="2" width="10" x="551" y="128" /><rect fill="#161b22" height="10" rx="2" ry="2" width="10" x="564" y="50" /><rect fill="#006d32" height="10" rx="2" ry="2" width="10" x="564" y="63" /><rect fill="#0e4429" height="10" rx="2" ry="2" width="10" x="564" y="76" /><rect fill="#0e4429" height="10" rx="2" ry="2" width="10" x="564" y="89" /><rect fill="#39d353" height="10" rx="2" ry="2" width="10" x="564" y="102" /><rect fill="#39d353" height="10" rx="2" ry="2" width="10" x="564" y="115" /><rect fill="#161b22" height="10" rx="2" ry="2" width="10" x="564" y="128" /><rect fill="#161b22" height="10" rx="2" ry="2" width="10" x="577" y="50" /><rect fill="#26a641" height="10" rx="2" ry="2" width="10" x="577" y="63" /><rect fill="#39d353" height="10" rx="2" ry="2" width="10" x="577" y="76" /><rect fill="#006d32" height="10" rx="2" ry="2" width="10" x="577" y="89" /><rect fill="#39d353" height="10" rx="2" ry="2" width="10" x="577" y="102" /><rect fill="#39d353" height="10" rx="2" ry="2" width="10" x="577" y="115" /><rect fill="#161b22" height="10" rx="2" ry="2" width="10" x="577" y="128" /><rect fill="#161b22" height="10" rx="2" ry="2" width="10" x="590" y="50" /><rect fill="#26a641" height="10" rx="2" ry="2" width="10" x="590" y="63" /><rect fill="#0e4429" height="10" rx="2" ry="2" width="10" x="590" y="76" /><rect fill="#006d32" height="10" rx="2" ry="2" width="10" x="590" y="89" /><rect fill="#0e4429" height="10" rx="2" ry="2" width="10" x="590" y="102" /><rect fill="#0e4429" height="10" rx="2" ry="2" width="10" x="590" y="115" /><rect fill="#161b22" height="10" rx="2" ry="2" width="10" x="590" y="128" /><rect fill="#161b22" height="10" rx="2" ry="2" width="10" x="603" y="50" /><rect fill="#39d353" height="10" rx="2" ry="2" width="10" x="603" y="63" /><rect fill="#39d353" height="10" rx="2" ry="2" width="10" x="603" y="76" /><rect fill="#39d353" height="10" rx="2" ry="2" width="10" x="603" y="89" /><rect fill="#39d353" height="10" rx="2" ry="2" width="10" x="603" y="102" /><rect fill="#26a641" height="10" rx="2" ry="2" width="10" x="603" y="115" /><rect fill="#161b22" height="10" rx="2" ry="2" width="10" x="603" y="128" /><rect fill="#161b22" height="10" rx="2" ry="2" width="10" x="616" y="50" /><rect fill="#39d353" height="10" rx="2" ry="2" width="10" x="616" y="63" /><rect fill="#39d353" height="10" rx="2" ry="2" width="10" x="616" y="76" /><rect fill="#26a641" height="10" rx="2" ry="2" width="10" x="616" y="89" /><rect fill="#161b22" height="10" rx="2" ry="2" width="10" x="616" y="102" /><rect fill="#39d353" height="10" rx="2" ry="2" width="10" x="616" y="115" /><rect fill="#161b22" height="10" rx="2" ry="2" width="10" x="616" y="128" /><rect fill="#39d353" height="10" rx="2" ry="2" width="10" x="629" y="50" /><rect fill="#39d353" height="10" rx="2" ry="2" width="10" x="629" y="63" /><rect fill="#26a641" height="10" rx="2" ry="2" width="10" x="629" y="76" /><rect fill="#39d353" height="10" rx="2" ry="2" width="10" x="629" y="89" /><rect fill="#39d353" height="10" rx="2" ry="2" width="10" x="629" y="102" /><rect fill="#39d353" height="10" rx="2" ry="2" width="10" x="629" y="115" /><rect fill="#161b22" height="10" rx="2" ry="2" width="10" x="629" y="128" /><rect fill="#161b22" height="10" rx="2" ry="2" width="10" x="642" y="50" /><rect fill="#39d353" height="10" rx="2" ry="2" width="10" x="642" y="63" /><rect fill="#39d353" height="10" rx="2" ry="2" width="10" x="642" y="76" /><rect fill="#0e4429" height="10" rx="2" ry="2" width="10" x="642" y="89" /><rect fill="#161b22" height="10" rx="2" ry="2" width="10" x="642" y="102" /><rect fill="#39d353" height="10" rx="2" ry="2" width="10" x="642" y="115" /><rect fill="#161b22" height="10" rx="2" ry="2" width="10" x="642" y="128" /><rect fill="#161b22" height="10" rx="2" ry="2" width="10" x="655" y="50" /><rect fill="#39d353" height="10" rx="2" ry="2" width="10" x="655" y="63" /><rect fill="#39d353" height="10" rx="2" ry="2" width="10" x="655" y="76" /><rect fill="#39d353" height="10" rx="2" ry="2" width="10" x="655" y="89" /><rect fill="#39d353" height="10" rx="2" ry="2" width="10" x="655" y="102" /><rect fill="#26a641" height="10" rx="2" ry="2" width="10" x="655" y="115" /><rect fill="#161b22" height="10" rx="2" ry="2" width="10" x="655" y="128" /><rect fill="#161b22" height="10" rx="2" ry="2" width="10" x="668" y="50" /><rect fill="#39d353" height="10" rx="2" ry="2" width="10" x="668" y="63" /><rect fill="#26a641" height="10" rx="2" ry="2" width="10" x="668" y="76" /><rect fill="#26a641" height="10" rx="2" ry="2" width="10" x="668" y="89" /><rect fill="#39d353" height="10" rx="2" ry="2" width="10" x="668" y="102" /><rect fill="#39d353" height="10" rx="2" ry="2" width="10" x="668" y="115" /><rect fill="#161b22" height="10" rx="2" ry="2" width="10" x="668" y="128" /><rect fill="#161b22" height="10" rx="2" ry="2" width="10" x="681" y="50" /><rect fill="#161b22" height="10" rx="2" ry="2" width="10" x="681" y="63" /><rect fill="#161b22" height="10" rx="2" ry="2" width="10" x="681" y="76" /><rect fill="#161b22" height="10" rx="2" ry="2" width="10" x="681" y="89" /><rect fill="#161b22" height="10" rx="2" ry="2" width="10" x="681" y="102" /><rect fill="#161b22" height="10" rx="2" ry="2" width="10" x="681" y="115" /><rect fill="#161b22" height="10" rx="2" ry="2" width="10" x="681" y="128" /><rect fill="#161b22" height="10" rx="2" ry="2" width="10" x="694" y="50" /><rect fill="#39d353" height="10" rx="2" ry="2" width="10" x="694" y="63" /><rect fill="#26a641" height="10" rx="2" ry="2" width="10" x="694" y="76" /><rect fill="#39d353" height="10" rx="2" ry="2" width="10" x="694" y="89" /><rect fill="#006d32" height="10" rx="2" ry="2" width="10" x="694" y="102" /><rect fill="#39d353" height="10" rx="2" ry="2" width="10" x="694" y="115" /><rect fill="#161b22" height="10" rx="2" ry="2" width="10" x="694" y="128" /><rect fill="#161b22" height="10" rx="2" ry="2" width="10" x="707" y="50" /><rect fill="#39d353" height="10" rx="2" ry="2" width="10" x="707" y="63" /><rect fill="#39d353" height="10" rx="2" ry="2" width="10" x="707" y="76" /><rect fill="#39d353" height="10" rx="2" ry="2" width="10" x="707" y="89" /><rect fill="#39d353" height="10" rx="2" ry="2" width="10" x="707" y="102" /><rect fill="#161b22" height="10" rx="2" ry="2" width="10" x="707" y="115" /><rect fill="#161b22" height="10" rx="2" ry="2" width="10" x="707" y="128" /><rect fill="#161b22" height="10" rx="2" ry="2" width="10" x="720" y="50" /><rect fill="#39d353" height="10" rx="2" ry="2" width="10" x="720" y="63" /><rect fill="#39d353" height="10" rx="2" ry="2" width="10" x="720" y="76" /><rect fill="#39d353" height="10" rx="2" ry="2" width="10" x="720" y="89" /><rect fill="#39d353" height="10" rx="2" ry="2" width="10" x="720" y="102" /><rect fill="#39d353" height="10" rx="2" ry="2" width="10" x="720" y="115" /><text fill="#9198a1" style="font-family: -apple-system, BlinkMacSystemFont, 'Segoe UI', 'Noto Sans', Helvetica, Arial, sans-serif; font-size: 12px;" x="602" y="160">Less</text><rect fill="#161b22" height="10" rx="2" ry="2" width="10" x="634" y="151" /><rect fill="#0e4429" height="10" rx="2" ry="2" width="10" x="647" y="151" /><rect fill="#006d32" height="10" rx="2" ry="2" width="10" x="660" y="151" /><rect fill="#26a641" height="10" rx="2" ry="2" width="10" x="673" y="151" /><rect fill="#39d353" height="10" rx="2" ry="2" width="10" x="686" y="151" /><text fill="#9198a1" style="font-family: -apple-system, BlinkMacSystemFont, 'Segoe UI', 'Noto Sans', Helvetica, Arial, sans-serif; font-size: 12px;" x="700" y="160">More</text></svg>